<?xml version="1.0" standalone="no"?>
<!DOCTYPE svg PUBLIC "-//W3C//DTD SVG 1.1//EN" "http://www.w3.org/Graphics/SVG/1.1/DTD/svg11.dtd" >
<svg xmlns="http://www.w3.org/2000/svg" xmlns:xlink="http://www.w3.org/1999/xlink" version="1.1">
<metadata>
Created by FontForge 20170731 at Sun Oct  9 17:57:34 2022
 By Aleksey,,,
[c] Copyright 2003-2004, The Font Bureau, Inc. Designed by David Berlow. All rights reserved.
</metadata>
<defs>
<font id="TitlingGothicFBComp-Regular" horiz-adv-x="585" >
  <font-face 
    font-family="TitlingGothicFB Comp"
    font-weight="400"
    font-stretch="normal"
    units-per-em="2048"
    panose-1="2 0 5 6 3 0 0 2 0 4"
    ascent="1638"
    descent="-410"
    x-height="1126"
    cap-height="1634"
    bbox="-170 -410 1479 1958"
    underline-thickness="40"
    underline-position="-312"
    unicode-range="U+0020-FB04"
  />
<missing-glyph horiz-adv-x="1024" 
 />
    <glyph glyph-name="fi" unicode="fi" horiz-adv-x="679" 
d="M473 1001h-223v-1001h-141v999h-99v127h99v306q0 99 47 156t145 57q44 0 100 -9v-127q-8 0 -33 2t-38 2q-82 0 -82 -92v-295h366v-1032q0 -20 2.5 -42.5t5 -36.5t3.5 -15h-140q-2 1 -5 13t-5 31.5t-2 37.5v919z" />
    <glyph glyph-name="fl" unicode="fl" horiz-adv-x="673" 
d="M10 999v127h96v304q0 100 45.5 157.5t141.5 57.5q46 0 98 -9v-127q-32 4 -72 4q-73 0 -73 -81v-306h153v-127h-151v-999h-142v999h-96zM621 0h-136q-10 10 -10 66v1474q0 76 -4 96h139q4 -4 4 -67v-1481q0 -74 7 -88z" />
    <glyph glyph-name=".notdef" horiz-adv-x="1024" 
 />
    <glyph glyph-name=".null" horiz-adv-x="0" 
 />
    <glyph glyph-name="nonmarkingreturn" horiz-adv-x="682" 
 />
    <glyph glyph-name="space" unicode=" " horiz-adv-x="294" 
 />
    <glyph glyph-name="exclam" unicode="!" horiz-adv-x="333" 
d="M244 1634l-15 -1263h-123l-16 1263h154zM244 0h-154v262h154v-262z" />
    <glyph glyph-name="quotedbl" unicode="&#x22;" horiz-adv-x="471" 
d="M428 1634l-4 -590h-133l-6 590h143zM182 1634l-6 -590h-129l-6 590h141z" />
    <glyph glyph-name="numbersign" unicode="#" horiz-adv-x="688" 
d="M670 993l-11 -119h-145l-18 -172h149l-8 -120h-152l-59 -594h-96l57 594h-133l-57 -594h-97l56 594h-142l9 120h145q14 158 18 172h-149l8 119h154l53 531h98l-53 -531h133l49 531h101q-50 -511 -54 -531h144zM418 874h-133l-19 -172h131q17 158 21 172z" />
    <glyph glyph-name="dollar" unicode="$" horiz-adv-x="651" 
d="M283 16q-114 12 -177.5 77.5t-72.5 180.5q-4 66 -4 164h141q0 -116 2 -147q12 -119 111 -137v637q-97 96 -146.5 163.5t-75.5 151t-26 197.5q0 285 248 307v41h90v-41q114 -13 169 -85.5t64 -201.5q6 -59 6 -160h-143q3 88 -2 154q-5 61 -27 97t-67 46v-563
q74 -72 111.5 -115t73.5 -104t49.5 -130t13.5 -165q0 -336 -248 -365v-102h-90v100zM283 1464q-60 -10 -86.5 -51t-26.5 -123q0 -93 25 -154t88 -137v465zM373 158q55 15 81.5 62.5t26.5 139.5q0 110 -21 180.5t-87 147.5v-530z" />
    <glyph glyph-name="percent" unicode="%" horiz-adv-x="1024" 
d="M479 1090q0 -130 -57 -202.5t-166 -72.5q-111 0 -164 73t-53 202v288q0 126 54.5 199.5t164.5 73.5q116 0 168.5 -75.5t52.5 -197.5v-288zM821 1569l-553 -1569h-90l553 1569h90zM985 260q0 -274 -225 -274q-217 0 -217 274v287q0 124 55.5 199t165.5 75q115 0 168 -77
t53 -197v-287zM367 1090v307q0 61 -29.5 97t-79.5 36q-106 0 -106 -133v-303q0 -160 106 -160q109 0 109 156zM872 262v303q0 62 -28.5 98.5t-79.5 36.5q-54 0 -81.5 -35t-27.5 -100v-303q0 -78 28 -118t81 -40q57 0 82.5 38t25.5 120z" />
    <glyph glyph-name="ampersand" unicode="&#x26;" horiz-adv-x="825" 
d="M358 850q94 -219 203 -424q38 161 41 328h135q0 -280 -80 -484q28 -51 88 -154t68 -116h-172q-44 83 -68 123q-42 -68 -108.5 -101.5t-140.5 -33.5q-75 0 -128.5 18t-87 49.5t-52.5 83.5t-26 110t-7 140q0 83 12 150.5t39.5 127.5t52.5 99.5t70 101.5
q-58 135 -77.5 225.5t-19.5 227.5q0 166 56.5 243.5t181.5 77.5q215 0 215 -292q0 -80 -14.5 -149.5t-46.5 -134t-59 -107.5t-75 -109zM295 985q60 88 93.5 169t33.5 187q0 158 -88 158q-60 0 -80.5 -42.5t-20.5 -137.5q0 -97 13.5 -167t48.5 -167zM264 735
q-56 -87 -80 -168t-24 -182q0 -99 20.5 -157t54 -79t87.5 -22q34 0 59 6t57.5 34.5t57.5 80.5q-156 298 -232 487z" />
    <glyph glyph-name="quotesingle" unicode="'" horiz-adv-x="301" 
d="M223 1634l-8 -606h-133l-6 606h147z" />
    <glyph glyph-name="parenleft" unicode="(" horiz-adv-x="360" 
d="M352 -143h-147q-67 157 -118.5 400.5t-51.5 490.5q0 241 53.5 486.5t116.5 399.5h147q-64 -164 -117 -414t-53 -477q0 -233 51 -475.5t119 -410.5z" />
    <glyph glyph-name="parenright" unicode=")" horiz-adv-x="360" 
d="M334 748q0 -247 -51 -489.5t-119 -401.5h-148q68 168 119 410.5t51 475.5q0 227 -53 477t-117 414h148q63 -154 116.5 -399.5t53.5 -486.5z" />
    <glyph glyph-name="asterisk" unicode="*" horiz-adv-x="694" 
d="M395 1405l191 90l39 -104l-205 -93l158 -170l-82 -71l-150 174l-149 -174l-82 73l155 168l-204 93l36 104l195 -90l-2 235h102z" />
    <glyph glyph-name="plus" unicode="+" horiz-adv-x="604" 
d="M580 762h-218v-238h-120v238h-217v115h217v237h123v-237h215v-115z" />
    <glyph glyph-name="comma" unicode="," horiz-adv-x="370" 
d="M272 -4l-108 -184l-86 26l72 154l-5 8h-49v268h176v-272z" />
    <glyph glyph-name="hyphen" unicode="-" horiz-adv-x="499" 
d="M483 737h-467v150h467v-150z" />
    <glyph glyph-name="period" unicode="." horiz-adv-x="370" 
d="M276 0h-184v268h184v-268z" />
    <glyph glyph-name="slash" unicode="/" horiz-adv-x="339" 
d="M352 1636l-303 -1964h-94l301 1964h96z" />
    <glyph glyph-name="zero" unicode="0" horiz-adv-x="671" 
d="M338 1645q129 0 197 -76.5t79 -202.5q13 -239 13 -543q0 -303 -17 -532q-15 -157 -81 -230t-191 -73q-130 0 -195 72t-80 231q-16 154 -16 528q0 379 10 545q13 127 81 204t200 77zM477 823q0 410 -6 533q-10 151 -135 151q-121 0 -131 -151q-10 -150 -10 -537
q0 -356 16 -549q13 -149 127 -149q61 0 89 36.5t34 110.5q16 195 16 555z" />
    <glyph glyph-name="one" unicode="1" horiz-adv-x="468" 
d="M385 0h-149v1403l-209 -21v125q113 16 170.5 47.5t85.5 81.5h102v-1636z" />
    <glyph glyph-name="two" unicode="2" horiz-adv-x="641" 
d="M604 0h-571v143q30 83 85.5 189.5t108 200.5t103 198t83.5 219.5t36 227.5v170q0 83 -33 118t-99 35q-127 0 -133 -139v-215h-145v223q5 124 78.5 199.5t212.5 75.5q72 0 123.5 -19.5t81 -57t44.5 -83t19 -105.5q2 -19 2 -105.5t-2 -111.5q-3 -111 -37 -228.5t-85 -222
t-104 -199t-105.5 -195.5t-78.5 -175h416v-143z" />
    <glyph glyph-name="three" unicode="3" horiz-adv-x="636" 
d="M385 879q93 -9 149.5 -67.5t63.5 -162.5q7 -75 7.5 -204t-5.5 -195q-9 -126 -85.5 -194t-207.5 -68q-246 0 -272 225q-12 145 -12 268h145q0 -156 10 -256q8 -102 127 -102q66 0 102 33.5t39 95.5q12 206 3 371q-5 79 -44.5 118.5t-125.5 46.5l-111 7v143q86 0 104 2
q79 6 109 43t45 123q7 42 8 151.5t-4 137.5q-6 58 -35 83t-84 25q-111 0 -121 -119q-4 -106 -4 -208h-139q0 158 6 229q9 109 77 174.5t185 65.5q242 0 258 -242q4 -44 3.5 -137t-5.5 -144q-10 -102 -56 -167.5t-130 -75.5z" />
    <glyph glyph-name="four" unicode="4" horiz-adv-x="673" 
d="M666 399h-127v-399h-142v399h-379v150l347 1087h174v-1104h127v-133zM397 532v811l-252 -811h252z" />
    <glyph glyph-name="five" unicode="5" horiz-adv-x="641" 
d="M602 240q-6 -111 -80.5 -181.5t-202.5 -70.5q-131 0 -200.5 68t-77.5 192q-2 94 -2 192h145q0 -143 2 -170q10 -147 129 -147q67 0 98 37.5t36 111.5q3 50 1 247t-6 274q-6 131 -116 131q-118 0 -133 -138h-140l4 848h512v-145h-378l-3 -518q20 46 67 71t112 25
q103 0 163.5 -59.5t69.5 -167.5q5 -102 5.5 -295.5t-5.5 -304.5z" />
    <glyph glyph-name="six" unicode="6" horiz-adv-x="659" 
d="M604 211q-48 -223 -264 -223q-117 0 -184.5 59t-87.5 184q-19 126 -19 588q0 413 10 516q23 310 275 310q237 0 266 -230q4 -47 4 -178h-141q0 97 -2 115q-6 78 -33 114.5t-94 36.5q-68 0 -98 -45t-35 -137q-8 -168 -8 -432q55 110 213 110q85 0 139.5 -52t60.5 -146
q10 -148 10.5 -326.5t-12.5 -263.5zM465 250q5 49 5.5 241.5t-5.5 266.5q-10 106 -121 106q-66 0 -104.5 -36.5t-46.5 -96.5q1 -28 1 -143.5t1.5 -213t5.5 -130.5q16 -123 137 -123q56 0 88 30t39 99z" />
    <glyph glyph-name="seven" unicode="7" horiz-adv-x="561" 
d="M555 1499l-315 -1499h-146l320 1491h-406v143h547v-135z" />
    <glyph glyph-name="eight" unicode="8" horiz-adv-x="657" 
d="M612 238q-35 -250 -286 -250q-131 0 -202.5 67.5t-82.5 182.5q-5 51 -5 225.5t7 253.5q10 75 51.5 120.5t89.5 57.5q-101 40 -116 188q-6 65 -6 187t6 162q33 213 258 213q117 0 181.5 -54.5t78.5 -154.5q6 -41 6.5 -174t-4.5 -177q-7 -72 -42 -123t-81 -65
q55 -13 96 -61.5t51 -122.5q9 -68 9 -246t-9 -229zM442 1047q3 74 3.5 187t-3.5 175q-3 45 -36.5 72.5t-81.5 27.5q-44 0 -75.5 -26.5t-37.5 -71.5q-6 -49 -6.5 -174t4.5 -188q3 -42 36 -67.5t81 -25.5q45 0 80 25t36 66zM461 233q8 73 10 244.5t-6 235.5q-9 53 -45.5 80.5
t-93.5 27.5q-56 0 -95 -28t-45 -82q-6 -60 -5.5 -241.5t7.5 -229.5q8 -55 44.5 -88t93.5 -33t93 30.5t42 83.5z" />
    <glyph glyph-name="nine" unicode="9" horiz-adv-x="659" 
d="M602 268q-27 -280 -289 -280q-107 0 -175 58t-77 161q-6 49 -6 184h142v-131q4 -78 35.5 -107.5t95.5 -29.5q59 0 94 37.5t39 107.5q2 45 2.5 243t1.5 214q-24 -47 -75.5 -70.5t-115.5 -23.5q-90 0 -148 44.5t-71 131.5q-10 104 -9.5 315t11.5 301q11 101 82.5 161.5
t188.5 60.5q109 0 173.5 -51.5t92.5 -163.5q18 -76 18 -574q0 -486 -10 -588zM465 877q-1 30 -1.5 151t-2 222.5t-4.5 125.5q-12 131 -131 131q-57 0 -91 -32t-38 -93q-5 -45 -5.5 -253.5t3.5 -251.5q9 -109 124 -109q59 0 97 31t49 78z" />
    <glyph glyph-name="colon" unicode=":" horiz-adv-x="352" 
d="M268 784h-168v256h168v-256zM268 0h-168v256h168v-256z" />
    <glyph glyph-name="semicolon" unicode=";" horiz-adv-x="352" 
d="M268 784h-168v256h168v-256zM268 -2l-108 -186l-78 34l68 148l-5 6h-45v258h168v-260z" />
    <glyph glyph-name="less" unicode="&#x3c;" horiz-adv-x="741" 
d="M692 471l-653 252v127l653 248v-125l-530 -187l530 -194v-121z" />
    <glyph glyph-name="equal" unicode="=" horiz-adv-x="608" 
d="M578 891h-547v110h547v-110zM578 637h-547v111h547v-111z" />
    <glyph glyph-name="greater" unicode="&#x3e;" horiz-adv-x="741" 
d="M696 723l-651 -252v121l528 194l-528 189v123l651 -248v-127z" />
    <glyph glyph-name="question" unicode="?" horiz-adv-x="608" 
d="M567 1208q-3 -73 -29.5 -145t-61 -136.5t-68.5 -138t-56 -181.5t-20 -236h-123q-4 142 15 256.5t49.5 187.5t62 135.5t55 133t25.5 147.5q2 45 2 141q-5 69 -33.5 102t-93.5 33q-56 0 -87 -33t-36 -92q0 -12 -1 -76.5t-1 -74.5h-137q0 145 6 188q8 108 76.5 167t193.5 59
q127 0 190.5 -59.5t71.5 -182.5q4 -101 0 -195zM352 0h-155v262h155v-262z" />
    <glyph glyph-name="at" unicode="@" horiz-adv-x="1347" 
d="M1294 848q-21 -226 -100 -348.5t-213 -122.5q-72 0 -113.5 43t-44.5 112q-83 -153 -264 -153q-124 0 -186.5 90.5t-42.5 269.5q21 209 116.5 333t247.5 124q68 0 119 -38t72 -99l26 108l109 2q-6 -48 -98 -487q-21 -72 -0.5 -132.5t82.5 -60.5q87 0 136.5 97.5
t65.5 267.5q25 302 -87 470.5t-357 168.5q-253 0 -425.5 -192t-195.5 -506q-14 -159 1.5 -285.5t55.5 -211t102.5 -140.5t137 -80.5t164.5 -24.5q230 0 404 142l43 -68q-95 -75 -197.5 -115.5t-249.5 -40.5q-133 0 -238.5 47.5t-181 144.5t-109.5 256t-18 369
q11 178 71.5 325.5t155.5 247t220.5 154t267.5 54.5q121 0 217 -37t157.5 -103t101 -156.5t48.5 -197.5t0 -227zM842 901q3 33 -10.5 71t-49 68.5t-82.5 30.5q-93 0 -159 -77t-88 -236q-34 -256 133 -256q92 0 143 52.5t74 152.5q32 144 39 194z" />
    <glyph glyph-name="A" unicode="A" horiz-adv-x="690" 
d="M207 401l-57 -401h-150l264 1634h197l229 -1634h-151q-46 360 -52 401h-280zM465 543q-88 614 -88 647l-21 276q-22 -241 -24 -274l-99 -649h232z" />
    <glyph glyph-name="B" unicode="B" horiz-adv-x="751" 
d="M416 0h-336v1634h354q128 0 184 -89.5t56 -309.5q0 -49 -1 -84t-4.5 -78.5t-9.5 -73.5t-17.5 -62t-28 -51.5t-40.5 -34t-55 -17.5q99 -10 140.5 -102.5t41.5 -287.5q0 -247 -62 -345.5t-222 -98.5zM518 1202q0 122 -14 185.5t-41.5 85.5t-79.5 22h-154v-604h185
q37 0 58 23t33.5 92.5t12.5 195.5zM543 463q0 121 -17.5 187t-45 86t-74.5 20h-177v-617h174q59 0 87 23t40.5 91t12.5 210z" />
    <glyph glyph-name="C" unicode="C" horiz-adv-x="731" 
d="M700 541q-1 -74 -4 -130t-11.5 -117t-23 -105t-38 -85t-56 -66.5t-79 -40.5t-105.5 -15q-56 0 -99 9t-77.5 32t-58.5 53.5t-41.5 83.5t-28 111.5t-17 148t-8.5 182.5t-2 225q0 137 1.5 218t8 179t20 152.5t37 112.5t58 86.5t84.5 46.5t117 18q55 0 100 -10.5t77 -33
t56 -49.5t39.5 -68.5t25 -80t14 -94.5t6 -102t1.5 -112h-151q0 75 -2.5 127.5t-9 101t-18 79t-30 54t-44.5 33.5t-62 10q-30 0 -51.5 -5t-39.5 -20.5t-30 -37t-22 -61t-15 -85t-8.5 -118t-4.5 -150.5t-1 -191q0 -164 2 -266.5t9.5 -187.5t18.5 -128.5t32.5 -73t47.5 -38
t68 -8.5q35 0 61.5 12t43 36t27 54t16 71.5t8.5 82.5t5 92q2 45 3 68h151z" />
    <glyph glyph-name="D" unicode="D" horiz-adv-x="731" 
d="M647 166q-62 -166 -256 -166h-311v1634h287q108 0 181 -43.5t97 -117.5q25 -79 34 -216t9 -405q0 -289 -8.5 -454t-32.5 -232zM510 233q27 67 27 619q0 412 -23 512q-12 61 -52 93t-97 32h-134v-1352h152q46 0 76.5 22.5t50.5 73.5z" />
    <glyph glyph-name="E" unicode="E" horiz-adv-x="632" 
d="M608 0h-528v1634h526v-143h-377v-594h346v-143h-346v-611h379v-143z" />
    <glyph glyph-name="F" unicode="F" horiz-adv-x="620" 
d="M604 1491h-373v-594h351v-143h-351v-754h-151v1634h524v-143z" />
    <glyph glyph-name="G" unicode="G" horiz-adv-x="716" 
d="M670 0h-109l-6 86q-23 -43 -76 -70.5t-127 -27.5q-50 0 -89 10t-69.5 34t-52.5 56t-38.5 85t-26 111.5t-15.5 144.5t-8 175.5t-2 212.5q0 116 1.5 197.5t7 167.5t15.5 143.5t26 113.5t39 90t55.5 61t75 38.5t96.5 11.5q66 0 115 -16.5t81 -52t52 -77.5t30 -106.5
t13.5 -125t3.5 -146.5h-150q0 92 -2.5 147.5t-10.5 105.5t-24 74.5t-41.5 38t-64.5 13.5q-37 0 -62.5 -12t-44 -46t-29 -79.5t-16.5 -129t-8 -175.5t-2 -238q0 -149 2 -244.5t8.5 -180t17 -131t29.5 -80.5t44.5 -46t62.5 -12q129 0 145 145q2 45 2 467h-186v141h336v-493z
" />
    <glyph glyph-name="H" unicode="H" horiz-adv-x="757" 
d="M676 0h-150v752h-295v-752h-151v1634h151v-737h295v737h150v-1634z" />
    <glyph glyph-name="I" unicode="I" horiz-adv-x="315" 
d="M236 0h-156v1634h156v-1634z" />
    <glyph glyph-name="J" unicode="J" horiz-adv-x="499" 
d="M428 279q0 -144 -72.5 -213.5t-185.5 -69.5q-91 0 -156 10v137q67 -8 123 -6q75 0 106 38.5t31 113.5v1345h154v-1355z" />
    <glyph glyph-name="K" unicode="K" horiz-adv-x="714" 
d="M721 0h-162l-274 760l-54 -103v-657h-151v1634h151v-725l330 725h152l-318 -714z" />
    <glyph glyph-name="L" unicode="L" horiz-adv-x="614" 
d="M600 0h-520v1634h153v-1493h367v-141z" />
    <glyph glyph-name="M" unicode="M" horiz-adv-x="976" 
d="M899 0h-139v1178l-205 -1178h-139l-197 1176v-1176h-139v1634h196l211 -1261l222 1261h190v-1634z" />
    <glyph glyph-name="N" unicode="N" horiz-adv-x="751" 
d="M672 0h-168l-285 1155v-1155h-139v1634h170l282 -1194v1194h140v-1634z" />
    <glyph glyph-name="O" unicode="O" horiz-adv-x="753" 
d="M379 1640q141 0 209 -71q28 -27 48.5 -65t33.5 -95t20.5 -110t11 -142t4.5 -158t1 -188q0 -177 -3 -275.5t-14.5 -205.5t-36.5 -171t-67 -106q-71 -71 -207 -71q-138 0 -209 71q-33 33 -55.5 86.5t-35 112t-19 155.5t-8 180t-1.5 224q0 175 3 276.5t15 208t37.5 170.5
t67.5 105q72 69 205 69zM379 125q39 0 65.5 10.5t46.5 42.5t31 76.5t18 128t9 180t2 248.5q0 114 -1 192.5t-4.5 153t-8.5 120.5t-14.5 88t-21.5 64t-30.5 38.5t-40 22t-51.5 5.5t-51.5 -5.5t-40 -22t-30.5 -38.5t-21.5 -64t-14.5 -88t-8.5 -120.5t-4.5 -153t-1 -192.5
q0 -115 1 -192.5t4 -153t8 -121.5t14.5 -88t21.5 -64t30.5 -39t40.5 -22.5t52 -5.5z" />
    <glyph glyph-name="P" unicode="P" horiz-adv-x="706" 
d="M668 1147q0 -149 -14.5 -238t-47.5 -139q-62 -95 -205 -104q-16 -2 -58.5 -2.5t-76.5 0.5h-35v-664h-151v1634h328q73 0 120 -26t80 -80q60 -96 60 -381zM514 1143q0 208 -31 272q-38 74 -112 74h-140v-684h131q52 1 78.5 20.5t46.5 57.5q27 59 27 260z" />
    <glyph glyph-name="Q" unicode="Q" horiz-adv-x="753" 
d="M547 27q1 -1 18.5 -17.5t32.5 -27.5q51 -44 80 -56l-88 -121q-49 29 -119 93q-55 51 -84 88h-8q-138 0 -209 71q-78 78 -98.5 242t-20.5 512q0 175 3 276.5t15 208t37.5 170.5t67.5 105q72 69 205 69q141 0 209 -71q28 -27 48.5 -65t33.5 -95t20.5 -110t11 -142t4.5 -158
t1 -188q0 -177 -3 -275t-14.5 -204t-36.5 -169.5t-67 -105.5q-18 -18 -39 -30zM379 123q39 0 65.5 10.5t46.5 43t31 77t18 128.5t9 180.5t2 248.5q0 114 -1 192.5t-4.5 153t-8.5 120.5t-14.5 88t-21.5 64t-30.5 38.5t-40 22t-51.5 5.5t-51.5 -5.5t-40 -22t-30.5 -38.5
t-21.5 -64t-14.5 -88t-8.5 -120.5t-4.5 -153t-1 -192.5q0 -115 1 -193t4 -153t8 -121.5t14.5 -88.5t21.5 -64t30.5 -39.5t40.5 -23t52 -5.5z" />
    <glyph glyph-name="R" unicode="R" horiz-adv-x="722" 
d="M655 1188q0 -195 -32 -277q-16 -40 -44.5 -73.5t-56.5 -40.5l185 -797h-162l-166 756l-152 -2v-754h-147v1634h319q96 0 151 -44t81 -130q24 -76 24 -272zM500 1167q0 154 -11 217q-8 49 -36 79t-72 30h-152v-600q150 0 164 2q65 6 86 66q21 55 21 206z" />
    <glyph glyph-name="S" unicode="S" horiz-adv-x="679" 
d="M643 334q0 -175 -79.5 -261.5t-231.5 -86.5q-132 0 -208.5 64.5t-84.5 170.5q-6 82 -6 217h145q0 -112 6 -186q11 -131 154 -131q77 0 115.5 47.5t38.5 150.5q0 72 -13 136t-31.5 109.5t-51.5 94.5t-58.5 79t-67.5 75q-37 40 -51.5 56t-47 55t-47 63.5t-37 67t-32.5 80
t-18 88.5t-8 106q0 150 77.5 233t227.5 83q138 0 211.5 -80t81.5 -205q6 -88 6 -176h-150q0 103 -4 162q-5 76 -38 116.5t-107 40.5q-81 0 -116.5 -43.5t-35.5 -138.5q0 -64 14 -118.5t45.5 -105t58 -83t73.5 -84.5q104 -114 144 -172q126 -183 126 -424z" />
    <glyph glyph-name="T" unicode="T" horiz-adv-x="618" 
d="M614 1491h-229v-1491h-154v1491h-227v143h610v-143z" />
    <glyph glyph-name="U" unicode="U" horiz-adv-x="739" 
d="M668 291q0 -145 -75 -225t-220 -80q-138 0 -221.5 76.5t-83.5 232.5v1339h149v-1325q0 -180 152 -180q74 0 110.5 43.5t36.5 136.5v1325h152v-1343z" />
    <glyph glyph-name="V" unicode="V" horiz-adv-x="706" 
d="M702 1634l-260 -1634h-182l-260 1634h156l198 -1372l197 1372h151z" />
    <glyph glyph-name="W" unicode="W" horiz-adv-x="1073" 
d="M1071 1634l-211 -1634h-164q-159 1186 -161 1356q0 -76 -41 -415t-82 -640l-41 -301h-164l-207 1634h154q147 -1220 147 -1382q0 72 38.5 417.5t76.5 654.5l39 310h163q154 -1222 154 -1382q0 71 38.5 416.5t77.5 655.5l38 310h145z" />
    <glyph glyph-name="X" unicode="X" horiz-adv-x="698" 
d="M346 618l-194 -618h-150l272 842l-247 792h155l174 -559l176 559h150q-254 -782 -254 -784l266 -850h-155z" />
    <glyph glyph-name="Y" unicode="Y" horiz-adv-x="729" 
d="M729 1634l-297 -1038v-596h-153v592l-279 1042h158q200 -773 202 -841q0 31 53.5 241.5t106.5 405.5l53 194h156z" />
    <glyph glyph-name="Z" unicode="Z" horiz-adv-x="620" 
d="M610 0h-592v131l418 1360h-393v143h555v-121l-424 -1372h436v-141z" />
    <glyph glyph-name="bracketleft" unicode="[" horiz-adv-x="368" 
d="M342 -334h-287v1968h287v-123h-145v-1730h145v-115z" />
    <glyph glyph-name="backslash" unicode="\" horiz-adv-x="339" 
d="M-4 1636h94l303 -1964h-94z" />
    <glyph glyph-name="bracketright" unicode="]" horiz-adv-x="372" 
d="M29 -334v115h145v1732h-145v121h284v-1968h-284z" />
    <glyph glyph-name="asciicircum" unicode="^" horiz-adv-x="759" 
d="M377 1513l-256 -333l-90 94l274 358h148l276 -358l-92 -94z" />
    <glyph glyph-name="underscore" unicode="_" horiz-adv-x="546" 
d="M547 -252h-547v137h547v-137z" />
    <glyph glyph-name="grave" unicode="`" 
d="M420 1198h-131l-144 248h148z" />
    <glyph glyph-name="a" unicode="a" horiz-adv-x="595" 
d="M561 0h-129q-14 0 -16 82q-53 -90 -185 -90q-84 0 -139.5 52t-58.5 149q-4 118 0 182q13 226 235 280q64 18 144 25v227q-3 103 -99 103q-94 0 -108 -86q-8 -49 -8 -181h-131q-3 129 14 222q15 82 75 128t162 46q115 0 171 -56t59 -155q0 -328 -2 -432q0 -61 -1 -188.5
t-1 -157.5q0 -42 6 -88t12 -62zM414 561q-9 -1 -37.5 -4t-44.5 -6q-85 -17 -117 -49q-39 -39 -45 -142q-4 -61 2 -153q8 -92 104 -92q93 0 125 96q6 19 8.5 52.5t2.5 93.5v79q2 29 2 125z" />
    <glyph glyph-name="b" unicode="b" horiz-adv-x="626" 
d="M369 1139q151 0 190 -154q27 -113 27 -401q0 -339 -39 -457q-26 -75 -74 -103t-123 -28q-49 0 -93.5 18.5t-66.5 53.5l-14 -68h-113v1636h134v-606q14 46 63 77.5t109 31.5zM326 1010q-56 0 -86.5 -33.5t-36.5 -89.5q-6 -156 -6 -316q0 -273 8 -364q8 -43 35.5 -70.5
t76.5 -27.5q89 0 109 78.5t20 392.5q0 281 -17.5 355.5t-102.5 74.5z" />
    <glyph glyph-name="c" unicode="c" 
d="M549 723h-133v24q0 51 -0.5 75t-3 61t-9.5 54.5t-18.5 36.5t-30.5 26.5t-45 7.5q-80 0 -104.5 -102t-24.5 -343q0 -196 13.5 -293.5t37.5 -126t72 -28.5q24 0 42.5 8.5t30.5 19.5t20.5 35t12.5 42t6 53t2.5 56.5t0.5 63.5h131q5 -207 -55 -306t-193 -99
q-68 0 -113.5 21.5t-76.5 74.5q-68 122 -68 479q0 345 66 467q61 111 200 111q129 0 184.5 -84t55.5 -262v-72z" />
    <glyph glyph-name="d" unicode="d" horiz-adv-x="618" 
d="M272 1137q53 0 94.5 -21.5t61.5 -62.5v583h135v-1513q0 -24 2 -54.5t4 -49.5l2 -19h-116l-21 74q-48 -82 -160 -82q-69 0 -114 26t-72 99q-43 122 -43 432q0 197 12 312.5t45 180.5q53 95 170 95zM305 1006q-22 0 -39 -4.5t-30 -17.5t-22 -28.5t-15.5 -46t-10 -60
t-5.5 -80.5t-2.5 -98.5t-0.5 -121.5q0 -115 3 -185t10 -124.5t21.5 -80.5t35 -38t53.5 -12q90 0 115 108q12 115 12 332q0 274 -14 375q-9 36 -38.5 59t-72.5 23z" />
    <glyph glyph-name="e" unicode="e" horiz-adv-x="595" 
d="M555 340q0 -185 -60.5 -268.5t-185.5 -83.5q-82 0 -133 25t-80 89q-53 114 -53 449q0 363 70 487q59 103 192 103q145 0 199.5 -97.5t54.5 -312.5v-229h-381q0 -230 23 -310.5t104 -80.5q72 0 95.5 49.5t23.5 179.5h131zM424 623v143q0 131 -23.5 188.5t-99.5 57.5
q-49 0 -73 -25t-37 -109.5t-13 -254.5h246z" />
    <glyph glyph-name="f" unicode="f" horiz-adv-x="387" 
d="M381 999h-135v-999h-137v999h-99v127h99v326q0 90 49 141.5t145 51.5q52 0 92 -7v-129q-36 4 -76 4q-73 0 -73 -79v-308h135v-127z" />
    <glyph glyph-name="g" unicode="g" horiz-adv-x="612" 
d="M297 1145q69 0 114.5 -17t57.5 -38q57 44 160 40v-106q-103 0 -111 -4q26 -46 29 -160q2 -35 1.5 -146.5t-3.5 -154.5q-17 -229 -242 -229q-61 0 -127 32q-18 -5 -30.5 -21t-12.5 -38q0 -36 40.5 -53t154.5 -29q160 -18 226.5 -76t66.5 -168q0 -122 -81 -187.5
t-233 -65.5q-151 0 -228 57t-77 164q0 129 121 198q-55 7 -81 44.5t-26 88.5q0 46 30 82.5t71 47.5q-30 20 -48.5 62.5t-19.5 94.5q-2 53 -2 355q2 98 65 162.5t185 64.5zM299 1020q-114 0 -117 -131v-320q3 -118 115 -118q59 0 84.5 29t30.5 89q4 60 4 186t-4 160
q-12 105 -113 105zM305 -170q100 0 144.5 33t44.5 102q0 62 -41.5 93t-137.5 46q-59 9 -98 13q-46 -25 -69 -59t-23 -91q0 -137 180 -137z" />
    <glyph glyph-name="h" unicode="h" horiz-adv-x="608" 
d="M555 0h-139q-2 0 -2 907q0 99 -97 99q-52 0 -84 -38.5t-32 -113.5v-854h-138v1636h136v-604q13 51 60.5 79t115.5 28q81 0 129.5 -51t48.5 -154q0 -934 2 -934z" />
    <glyph glyph-name="i" unicode="i" horiz-adv-x="272" 
d="M213 1200h-154v197h154v-197zM217 0h-141q-10 0 -10 82v1044h141v-1032q0 -94 10 -94z" />
    <glyph glyph-name="j" unicode="j" horiz-adv-x="276" 
d="M215 1200h-152v197h152v-197zM209 -170q0 -91 -52.5 -141.5t-136.5 -50.5q-60 0 -88 8v121h48q90 0 90 86v1273h139v-1296z" />
    <glyph glyph-name="k" unicode="k" horiz-adv-x="581" 
d="M584 0h-140l-170 553l-73 -125v-428h-138v1636h138v-979l233 469h141l-208 -421z" />
    <glyph glyph-name="l" unicode="l" horiz-adv-x="258" 
d="M205 0h-135q-9 9 -9 66v1474q0 78 -6 96h142l1 -10q1 -11 2 -27t1 -30v-1481q0 -72 4 -88z" />
    <glyph glyph-name="m" unicode="m" horiz-adv-x="913" 
d="M721 0q-2 0 -2 905q0 48 -18.5 76.5t-67.5 28.5q-47 0 -76 -38t-29 -87v-885h-131q-2 0 -2 913q0 97 -86 97q-51 0 -79.5 -37t-28.5 -92v-881h-138v1126h134v-102q15 53 60.5 85t107.5 32q61 0 99.5 -31t49.5 -84q16 58 61.5 86.5t106.5 28.5q170 0 170 -201
q0 -940 4 -940h-135z" />
    <glyph glyph-name="n" unicode="n" horiz-adv-x="608" 
d="M555 0h-137q-4 0 -4 905q0 53 -22.5 78t-72.5 25q-54 0 -86 -40.5t-32 -127.5v-840h-138v1126h132v-110q16 63 65.5 93t112.5 30q178 0 178 -205q0 -934 4 -934z" />
    <glyph glyph-name="o" unicode="o" horiz-adv-x="618" 
d="M575 563q0 -179 -13.5 -289.5t-49.5 -175.5q-56 -110 -203 -110q-143 0 -203 108q-35 66 -49 178t-14 289q0 183 16 298.5t56 180.5q60 99 196 99q143 0 199 -97q37 -65 51 -178.5t14 -302.5zM438 561q0 77 -0.5 125t-2.5 99t-5.5 80t-10.5 58t-16 42.5t-23 25.5
t-31 15.5t-40 3.5q-53 0 -79.5 -34.5t-38 -128.5t-11.5 -286q0 -94 1 -149.5t5.5 -112.5t12.5 -86.5t22.5 -54.5t35.5 -34t52 -9q83 0 106 90.5t23 355.5z" />
    <glyph glyph-name="p" unicode="p" horiz-adv-x="626" 
d="M586 584q0 -332 -47 -457q-28 -71 -73.5 -100t-113.5 -29q-52 0 -94 18t-59 47v-397h-136v1460h132v-100q20 54 66 83.5t108 29.5q53 0 89 -16.5t61.5 -52.5t39.5 -102.5t20.5 -157.5t6.5 -226zM446 578q0 101 -1 157t-5 112t-11.5 81t-22 46.5t-33.5 27.5t-49 6
q-33 0 -55 -13t-36.5 -40t-22 -80.5t-10.5 -121t-3 -175.5q0 -107 1.5 -172.5t6.5 -121.5t13 -84t23 -48t34 -25.5t49 -5.5q28 0 46 6.5t32.5 26.5t22.5 49.5t13 84.5t6.5 121t1.5 169z" />
    <glyph glyph-name="q" unicode="q" horiz-adv-x="622" 
d="M571 -334h-139l-6 10v408q-41 -92 -145 -92q-70 0 -117.5 29t-75.5 104q-43 117 -43 436q0 364 66 483q55 93 168 93q108 0 153 -86v79h131v-1296q0 -25 1 -51t2 -45.5t2 -35.5t2 -25.5t1 -10.5zM430 573q0 281 -12 340q-17 95 -107 95q-78 0 -104.5 -92t-26.5 -353
q0 -98 1 -155.5t5 -115t11.5 -86t21 -52t33 -31.5t47.5 -8q97 0 117 98q3 12 5 26.5t3.5 33t2.5 34t1.5 40t1 40.5t0.5 45.5v44.5v48.5v47.5z" />
    <glyph glyph-name="r" unicode="r" horiz-adv-x="448" 
d="M449 1133v-142q-43 13 -103 13q-67 0 -106 -56t-39 -160v-788h-138v1126h138v-118q9 59 57 95t111 36q38 0 80 -6z" />
    <glyph glyph-name="s" unicode="s" horiz-adv-x="559" 
d="M528 291q0 -151 -64 -227t-183 -76q-240 0 -252 225q-2 43 -2 125h131q0 -74 2 -125q3 -51 32.5 -79t83.5 -28q119 0 119 170q0 47 -10.5 84.5t-32.5 66t-43 47.5t-55 42q-5 4 -30.5 22t-32.5 23t-29.5 23.5t-30 28t-25.5 30t-25 36t-19 40t-16.5 48.5t-8.5 55t-4 65
q0 113 62 183.5t181 70.5q197 0 228 -180q6 -33 6 -181h-131q0 128 -2 140q-4 40 -29.5 68t-77.5 28q-104 0 -104 -135q0 -42 10.5 -77.5t23 -58t39 -48t42.5 -37.5t51 -35q31 -21 49 -34.5t50 -45.5t50 -64t32.5 -82.5t14.5 -107.5z" />
    <glyph glyph-name="t" unicode="t" horiz-adv-x="401" 
d="M377 1001h-146q0 -111 -1 -411.5t-1 -380.5q0 -53 19 -69.5t59 -16.5q32 0 68 4v-123q-55 -10 -121 -10q-71 0 -117.5 43t-46.5 141v823h-86v125h86l4 179l135 6v-185h148v-125z" />
    <glyph glyph-name="u" unicode="u" horiz-adv-x="612" 
d="M555 0h-135l-4 70q-45 -78 -166 -78q-89 0 -140 53.5t-51 165.5v915h140v-901q0 -112 98 -112q55 0 85 38t30 109v866h139v-987q0 -111 4 -139z" />
    <glyph glyph-name="v" unicode="v" horiz-adv-x="589" 
d="M586 1126l-209 -1126h-162l-211 1126h139l156 -944l154 944h133z" />
    <glyph glyph-name="w" unicode="w" horiz-adv-x="931" 
d="M932 1126l-184 -1126h-160q-93 571 -113 698l-8 191q-4 -140 -8 -191l-103 -698h-168l-184 1126h141l131 -956l117 956h148l129 -956l121 956h141z" />
    <glyph glyph-name="x" unicode="x" horiz-adv-x="563" 
d="M285 727l133 399h137l-195 -538l199 -588h-139l-144 436l-137 -436h-137l201 580l-189 546h144z" />
    <glyph glyph-name="y" unicode="y" horiz-adv-x="587" 
d="M584 1126l-301 -1460h-142l82 389l-219 1071h141q0 -6 74 -411t74 -410q2 8 77 410.5t76 410.5h138z" />
    <glyph glyph-name="z" unicode="z" horiz-adv-x="507" 
d="M489 0h-469v131l322 868h-315v127h456v-137l-325 -862h331v-127z" />
    <glyph glyph-name="braceleft" unicode="{" horiz-adv-x="524" 
d="M489 -332h-116q-209 0 -209 262q0 76 18.5 257.5t18.5 269.5q0 48 -7 85t-24.5 69.5t-50.5 49.5t-80 17v133q164 2 164 215q0 54 -19.5 174t-19.5 197q0 101 49.5 168t157.5 67h118v-129q-111 3 -152 -30.5t-38 -131.5q0 -31 18.5 -158.5t18.5 -181.5q0 -239 -152 -256
q152 -14 152 -266q0 -82 -19 -257.5t-20 -276.5q-1 -88 40 -117.5t152 -26.5v-133z" />
    <glyph glyph-name="bar" unicode="|" horiz-adv-x="346" 
d="M233 -410h-118v2048h118v-2048z" />
    <glyph glyph-name="braceright" unicode="}" horiz-adv-x="524" 
d="M29 -332v133q112 -3 153 26.5t41 117.5q-1 101 -21 276.5t-20 257.5q0 252 152 266q-152 17 -152 256q0 55 20 183.5t21 156.5q0 98 -41 131.5t-153 30.5v129h118q56 0 98 -19.5t65.5 -53.5t34.5 -74.5t11 -87.5q0 -77 -19.5 -197t-19.5 -174q0 -46 7 -81.5t24 -67
t50 -48.5t81 -18v-133q-47 0 -80 -17t-49.5 -49.5t-23.5 -69.5t-7 -85q0 -88 18.5 -269.5t18.5 -257.5q0 -262 -211 -262h-116z" />
    <glyph glyph-name="asciitilde" unicode="~" horiz-adv-x="624" 
d="M293 729q-5 6 -19.5 24t-20.5 23.5t-17.5 15.5t-22.5 13.5t-25 3.5q-66 0 -82 -123l-102 35q15 109 63 168t121 59q49 0 83.5 -19t70.5 -67q1 -1 8.5 -10t9 -11t8 -9.5t9 -9.5t9 -8t10.5 -8t10 -6t11 -5t11.5 -2.5t13.5 -1.5q71 0 84 114l103 -43q-14 -97 -62.5 -152
t-124.5 -55q-44 0 -78.5 17t-70.5 57z" />
    <glyph glyph-name="nbspace" unicode="&#xa0;" horiz-adv-x="147" 
 />
    <glyph glyph-name="exclamdown" unicode="&#xa1;" horiz-adv-x="333" 
d="M92 1634h152v-260h-152v260zM92 -2l14 1268h123l17 -1268h-154z" />
    <glyph glyph-name="cent" unicode="&#xa2;" horiz-adv-x="604" 
d="M362 1362q88 -9 139 -58t62 -124q15 -128 15 -222h-134q0 58 -4 148q-6 110 -78 131v-883q61 18 76 109q8 36 8 168h132q0 -40 -6 -111t-15 -104q-37 -158 -195 -176v-156h-92v0v0v1v0v1v1v0v1v1v1v1v1v1v1v1v1v1v1v1v1v1v1v1v1v1v1v1v1v2v1v1v1v1v1v1v1v1v1v1v2v1v1v1v1
v2v1v1v2v1v1v1v2v1v1v2v1v2v1v1v2v1v2v1v1v2v1v2v1v2v1v2v1v2v2v1v2v1v2v1v2v2v1v2v2v1v2v2v1v2v2v1v2v2v1v2v2v2v2v1v2v2v2v2v1v2v2v2v2v2v2v9q-157 22 -192 172q-25 146 -25 389q0 156 29 370q37 166 188 189v141h92v-139zM270 1233q-48 -25 -59 -109q-14 -123 -14 -325
q0 -199 14 -332q9 -89 59 -107v873z" />
    <glyph glyph-name="sterling" unicode="&#xa3;" horiz-adv-x="630" 
d="M162 788q-2 6 -12 37.5t-13 40t-12 38t-12 42t-10.5 40t-10.5 43.5t-8.5 42t-7.5 46t-4.5 44.5t-3.5 48.5q-4 99 0 185q14 250 258 250q139 0 198 -67t62 -183q2 -27 2 -344h-139v327q-3 72 -31.5 101.5t-89.5 31.5q-58 0 -84 -35.5t-31 -101.5v-170q2 -73 17 -152.5
t30 -129.5t43 -134h246v-124h-215q28 -118 26 -181q-1 -140 -50 -228t-117 -120h407v-135h-561v143q79 43 129.5 132t54.5 208q2 53 -26 181h-136v124h101z" />
    <glyph glyph-name="currency" unicode="&#xa4;" horiz-adv-x="706" 
d="M662 467q0 -8 -3.5 -88t-5.5 -109q-15 -140 -81 -211t-191 -71q-122 0 -186 67t-82 193q-8 74 -13 418h-82v104h76v41v41h-76v104h80q5 378 17 451q21 116 83.5 175.5t182.5 59.5t185 -66.5t83 -197.5q10 -64 10 -243h-139q4 122 -2 196q-5 88 -39 136.5t-98 48.5
q-119 0 -133 -156q-8 -75 -8 -404h254v-104h-254v-39v-43h254v-104h-254q0 -302 6 -385q16 -168 135 -168q131 0 137 184q2 59 2 170h142z" />
    <glyph glyph-name="yen" unicode="&#xa5;" horiz-adv-x="735" 
d="M287 418h-242v104h242v84l-287 1028h150q210 -774 212 -848q1 35 57.5 247t112.5 407l56 194h149l-305 -1022v-90h250v-104h-250v-82h250v-105h-250v-231h-145v231h-242v105h242v82z" />
    <glyph glyph-name="brokenbar" unicode="&#xa6;" horiz-adv-x="346" 
d="M233 733h-120v905h120v-905zM233 -410h-120v865h120v-865z" />
    <glyph glyph-name="section" unicode="&#xa7;" horiz-adv-x="546" 
d="M43 930q12 143 104 188q-85 62 -88 191v131q4 97 59.5 148.5t153.5 51.5q99 0 154 -48.5t61 -157.5q2 -10 2 -138h-108v127q-2 56 -25 84.5t-75 28.5q-54 0 -80 -25.5t-29 -85.5v-110q1 -56 23.5 -85.5t78.5 -60.5q2 -1 117 -67q99 -69 113 -189q12 -112 -2 -170
q-19 -130 -113 -172q123 -78 129 -221v-149q-9 -219 -231 -219q-110 0 -171.5 51t-68.5 168q-2 8 -2 137h125v-129q3 -60 29.5 -89.5t87.5 -29.5q59 0 84.5 29t27.5 96q1 5 1 33t-0.5 60.5t-0.5 33.5q-3 57 -27.5 91t-80.5 67q-33 23 -146 88q-95 73 -104 190q-9 88 2 152z
M154 772q14 -39 48 -66t117 -75q28 3 51.5 45.5t26.5 97.5q4 22 2 74.5t-10 66.5q-11 29 -36.5 53.5t-47 37.5t-74.5 41q-29 -2 -55 -41t-29 -91q-5 -26 -3.5 -73.5t10.5 -69.5z" />
    <glyph glyph-name="dieresis" unicode="&#xa8;" 
d="M477 1198h-129v199h129v-199zM236 1198h-127v199h127v-199z" />
    <glyph glyph-name="copyright" unicode="&#xa9;" horiz-adv-x="847" 
d="M809 973q-1 -213 -101 -319.5t-282 -106.5q-183 0 -285.5 107t-103.5 319q0 166 2 270q3 205 105.5 301t279.5 96q85 0 152.5 -22t120 -68t82 -124.5t30.5 -184.5q3 -116 0 -268zM745 1004v247q-3 161 -88 239.5t-233 78.5t-234.5 -78t-87.5 -238q-4 -161 0 -249
q0 -390 322 -390q160 0 239 90.5t82 299.5zM602 1004q-1 -12 -2 -63.5t-2 -61.5q-6 -69 -53.5 -106.5t-122.5 -37.5q-79 0 -123.5 38t-50.5 106q-4 63 -4 186q0 164 4 197q6 73 56.5 111t125.5 38q76 0 119.5 -42t48.5 -114q4 -58 4 -110h-94q0 83 -2 108q-9 66 -76 66
q-83 0 -92 -82q-2 -31 -2 -172q0 -108 4 -154q3 -50 24 -72t62 -22q39 0 59 19t23 69q0 23 1 59.5t1 39.5h92z" />
    <glyph glyph-name="ordfeminine" unicode="&#xaa;" horiz-adv-x="587" 
d="M532 584h-131q-8 66 -8 86q-23 -44 -68.5 -68t-105.5 -24q-43 0 -74.5 10.5t-59 38t-42 81.5t-14.5 134q0 95 15.5 158t56 110.5t110.5 72.5t178 34q0 19 1 96t1 102q-3 101 -90 101q-68 0 -89.5 -50.5t-21.5 -173.5h-129q-6 170 46 259t190 89q222 0 225 -206
q3 -151 -2 -396q0 -59 1 -167t1 -138q0 -124 10 -149zM553 408h-520v116h520v-116zM389 1104q-132 0 -182 -53q-29 -32 -35 -64.5t-6 -128.5q0 -90 20 -127t66 -37q102 0 125 103q12 74 12 180q1 11 1 36.5t-0.5 55t-0.5 35.5z" />
    <glyph glyph-name="guillemotleft" unicode="&#xab;" horiz-adv-x="645" 
d="M610 268l-288 389v109l288 391v-203l-170 -241l170 -240v-205zM324 268l-289 389v109l289 391v-203l-170 -241l170 -240v-205z" />
    <glyph glyph-name="logicalnot" unicode="&#xac;" horiz-adv-x="710" 
d="M322 1051v448h-312v129h690v-129h-317v-448q84 -14 141.5 -78.5t57.5 -149.5q0 -86 -58 -150t-143 -75v-446h319v-142h-690v142h309v446q-84 12 -140 75.5t-56 149.5q0 85 57.5 149.5t141.5 78.5zM199 737q19 5 88 25q-51 -64 -54 -68q40 -35 86 -43v97l31 67l31 -67v-97
q51 9 88 43q-7 10 -27 34t-28 36q85 -23 92 -25q22 39 22 84q0 47 -24 88q-38 -9 -92 -24q1 2 55 69q-37 32 -84 41v-96l-33 -70l-28 70v96q-42 -8 -86 -43q7 -10 26.5 -34t28.5 -37q-46 15 -94 22q-21 -44 -21 -82q0 -42 23 -86z" />
    <glyph glyph-name="registered" unicode="&#xae;" horiz-adv-x="847" 
d="M809 973q-1 -213 -101 -319.5t-282 -106.5q-183 0 -285.5 107t-103.5 319q0 166 2 270q3 205 105.5 301t279.5 96q85 0 152.5 -22t120 -68t82 -124.5t30.5 -184.5q3 -116 0 -268zM745 1004v247q-3 161 -88 239.5t-233 78.5t-234.5 -78t-87.5 -238q-4 -161 0 -249
q0 -201 86 -295.5t236 -94.5q160 0 239 91.5t82 298.5zM618 754h-108l-90 266h-80v-266h-104v632h192q55 0 99.5 -18.5t62.5 -46.5q28 -45 28 -113q0 -27 -8 -65t-20 -58q-22 -39 -70 -51zM514 1192q0 69 -43 94q-27 14 -131 14v-200q108 0 123 6q28 9 39.5 29t11.5 57z" />
    <glyph glyph-name="macron" unicode="&#xaf;" 
d="M487 1225h-391v108h391v-108z" />
    <glyph glyph-name="degree" unicode="&#xb0;" horiz-adv-x="413" 
d="M207 1536q78 0 132 -56.5t54 -136.5q0 -81 -54 -136.5t-132 -55.5q-76 0 -130 55.5t-54 136.5q0 79 54.5 136t129.5 57zM207 1436q-38 0 -65 -27.5t-27 -65.5q0 -39 26.5 -65.5t65.5 -26.5q40 0 66 26t26 66q0 39 -26.5 66t-65.5 27z" />
    <glyph glyph-name="plusminus" unicode="&#xb1;" horiz-adv-x="602" 
d="M578 836h-220v-170h-114v170h-219v102h219v182h114v-182h220v-102zM575 518h-546v103h546v-103z" />
    <glyph glyph-name="twosuperior" unicode="&#xb2;" horiz-adv-x="542" 
d="M475 795h-414v82q18 59 56.5 117.5t79.5 104t79.5 92t63.5 98.5t25 106v49q0 59 -23.5 82.5t-75.5 23.5q-42 0 -63 -21t-25 -71q-4 -25 -4 -102h-106q0 73 2 100q16 184 209 184q191 0 194 -180v-82q-1 -52 -22.5 -103t-56 -96t-71 -88t-72.5 -96.5t-54 -105.5h278v-94z
" />
    <glyph glyph-name="threesuperior" unicode="&#xb3;" horiz-adv-x="540" 
d="M301 1212q58 -1 97 -13.5t58 -34t26.5 -42t9.5 -47.5q3 -52 0 -110q-6 -99 -62 -142t-156 -43q-96 0 -152 38.5t-59 117.5v30t-0.5 29t-1 24t-0.5 18v7h109v-110q0 -38 26.5 -54t79.5 -16q57 0 79 23t24 69v99q-2 51 -27 74.5t-104 27.5l-80 4v90q76 4 78 4q71 11 95 36
t24 95v93q-3 73 -89 73q-89 0 -92 -71v-25.5t0.5 -27t1 -23.5t0.5 -18v-7h-108q0 1 1 19l2.5 45l2.5 45q3 71 53 112t142 41q106 0 149 -42.5t45 -116.5v-88q-2 -91 -37.5 -132t-134.5 -51z" />
    <glyph glyph-name="acute" unicode="&#xb4;" 
d="M190 1198l123 248h150l-148 -248h-125z" />
    <glyph glyph-name="mu" unicode="&#xb5;" horiz-adv-x="612" 
d="M553 0h-129l-4 70q-36 -68 -137 -72q-69 -3 -93 37v-369h-127v459v1001v0v0h1v0h1v0h1h1h1h1h1h1h1h1h1h1h1h1h1h1h1h1h1h1h1h1h1h1h1h2h1h1h1h1h1h2h1h1h1h1h2h1h1h2h1h1h2h1h1h2h1h2h1h1h2h1h2h1h2h1h2h1h2h2h1h2h1h2h2h1h2h1h2h2h1h2h2h2h1h2h2h2h1h2h2h2h1h2h2h2h2h2
h2h9v-923q0 -107 100 -107q59 0 90 38t31 110v882h133v-987q0 -103 4 -139z" />
    <glyph glyph-name="mu" unicode="&#x3bc;" horiz-adv-x="612" 
d="M553 0h-129l-4 70q-36 -68 -137 -72q-69 -3 -93 37v-369h-127v459v1001v0v0h1v0h1v0h1h1h1h1h1h1h1h1h1h1h1h1h1h1h1h1h1h1h1h1h1h1h1h2h1h1h1h1h1h2h1h1h1h1h2h1h1h2h1h1h2h1h1h2h1h2h1h1h2h1h2h1h2h1h2h1h2h2h1h2h1h2h2h1h2h1h2h2h1h2h2h2h1h2h2h2h1h2h2h2h1h2h2h2h2h2
h2h9v-923q0 -107 100 -107q59 0 90 38t31 110v882h133v-987q0 -103 4 -139z" />
    <glyph glyph-name="paragraph" unicode="&#xb6;" horiz-adv-x="600" 
d="M557 1634v-1843h-70v1727h-47v-1727h-73v748q-46 -70 -144 -70q-161 0 -182 172q-14 107 -14 406q0 194 3 266.5t13 152.5q14 82 61.5 129t120.5 47q48 0 88.5 -19.5t57.5 -53.5l26 65h160zM369 1071v340q0 48 -25 72t-61 24q-44 0 -65.5 -25t-27.5 -89
q-14 -121 -14 -336q0 -262 12 -379q6 -40 29.5 -61t58.5 -21q41 0 64.5 26t26.5 72q2 31 2 377z" />
    <glyph glyph-name="periodcentered" unicode="&#xb7;" horiz-adv-x="368" 
d="M276 668h-186v268h186v-268z" />
    <glyph glyph-name="cedilla" unicode="&#xb8;" 
d="M362 -199q0 70 -126 70v129h94v-61q67 0 108 -42.5t41 -111.5q0 -83 -78 -130t-223 -26v88q94 -14 139 9t45 75z" />
    <glyph glyph-name="onesuperior" unicode="&#xb9;" horiz-adv-x="475" 
d="M313 795h-108v665l-172 -14v84q73 1 130 31.5t75 74.5h75v-841z" />
    <glyph glyph-name="ordmasculine" unicode="&#xba;" horiz-adv-x="589" 
d="M547 1116q0 -232 -29 -354q-18 -89 -75.5 -138t-149.5 -49q-95 0 -150.5 49.5t-74.5 131.5q-27 135 -27 360q0 212 25 340q46 186 229 186q188 0 231 -190q21 -111 21 -336zM567 408h-534v116h534v-116zM412 1114q0 221 -17 307q-9 50 -33.5 71t-68.5 21q-82 0 -103 -90
q-16 -96 -16 -309q0 -217 23 -332q15 -84 96 -84q83 0 98 86q21 119 21 330z" />
    <glyph glyph-name="guillemotright" unicode="&#xbb;" horiz-adv-x="645" 
d="M324 274v205l170 240l-170 244v202l288 -391v-108zM35 274v205l172 240l-172 244v202l291 -391v-108z" />
    <glyph glyph-name="onequarter" unicode="&#xbc;" horiz-adv-x="960" 
d="M295 795h-109v665l-174 -14v84q74 1 131 31.5t78 74.5h74v-841zM715 1634q-144 -508 -236 -837l-221 -797h-82q148 525 244 864l215 770h80zM926 240h-90v-240h-107v240h-278v94l262 504h123v-506h90v-92zM729 332v356l-176 -356h176z" />
    <glyph glyph-name="onehalf" unicode="&#xbd;" horiz-adv-x="954" 
d="M293 795h-109v665l-174 -14v84q73 1 130.5 31.5t78.5 74.5h74v-841zM682 1634q-144 -508 -238 -837l-221 -797h-80q150 525 244 864l215 770h80zM913 0h-411v82q18 59 56 117.5t78.5 104t79 92t63 98.5t24.5 106v49q0 60 -23 83.5t-75 23.5q-42 0 -62.5 -21t-24.5 -71
q-4 -25 -4 -103h-106q0 74 2 101q16 184 207 184q189 0 196 -180q0 -7 -1 -40.5t-1 -41.5q-1 -52 -23 -103.5t-56.5 -96t-71 -88t-72 -97.5t-53.5 -107h278v-92z" />
    <glyph glyph-name="threequarters" unicode="&#xbe;" horiz-adv-x="1030" 
d="M260 1212q57 -1 96 -13.5t58.5 -34t27 -42t9.5 -47.5q3 -52 0 -110q-6 -100 -61.5 -142.5t-156.5 -42.5q-95 0 -151 38.5t-59 117.5q0 14 -0.5 30t-0.5 29t-0.5 24t-1.5 18v7h109v-110q0 -38 26.5 -54t80.5 -16q57 0 78.5 23t23.5 69v99q-2 51 -27 74.5t-104 27.5l-78 4
v90q74 4 76 4q71 11 95.5 36t25.5 95v93q-3 73 -90 73q-88 0 -91 -71q-2 -41 -2 -101h-106q0 27 4 109q5 71 55 112t142 41q106 0 149 -42.5t45 -116.5v-88q0 -91 -35.5 -132t-136.5 -51zM803 1634q-146 -508 -238 -837l-221 -797h-80q150 525 244 864l217 770h78zM1008 240
h-90v-240h-105v240h-278v94l260 504h123v-506h90v-92zM813 332v358l-178 -358h178z" />
    <glyph glyph-name="questiondown" unicode="&#xbf;" horiz-adv-x="608" 
d="M258 1634h156v-262h-156v262zM43 426q3 73 29 145t60.5 136.5t68.5 138.5t56 182t19 236h125q4 -142 -15 -256.5t-50 -188.5t-62.5 -136.5t-55 -133.5t-25.5 -148q-4 -89 2 -143q2 -68 29.5 -101.5t90.5 -33.5q115 0 125 125q0 12 1 78.5t1 76.5h138q0 -115 -5 -188
q-9 -108 -78 -166.5t-194 -58.5q-127 0 -189.5 58.5t-70.5 182.5q-5 68 0 195z" />
    <glyph glyph-name="Agrave" unicode="&#xc0;" horiz-adv-x="690" 
d="M207 401l-57 -401h-150l264 1634h197l229 -1634h-151q-46 360 -52 401h-280zM465 543q-88 614 -88 647l-21 276q-22 -241 -24 -274l-99 -649h232zM444 1704h-131l-143 248h147z" />
    <glyph glyph-name="Aacute" unicode="&#xc1;" horiz-adv-x="690" 
d="M207 401l-57 -401h-150l264 1634h197l229 -1634h-151q-46 360 -52 401h-280zM465 543q-88 614 -88 647l-21 276q-22 -241 -24 -274l-99 -649h232zM287 1704l123 248h149l-147 -248h-125z" />
    <glyph glyph-name="Acircumflex" unicode="&#xc2;" horiz-adv-x="690" 
d="M207 401l-57 -401h-150l264 1634h197l229 -1634h-151q-46 360 -52 401h-280zM465 543q-88 614 -88 647l-21 276q-22 -241 -24 -274l-99 -649h232zM567 1706h-121l-90 158l-88 -158h-118l131 248h157z" />
    <glyph glyph-name="Atilde" unicode="&#xc3;" horiz-adv-x="690" 
d="M207 401l-57 -401h-150l264 1634h197l229 -1634h-151q-46 360 -52 401h-280zM465 543q-88 614 -88 647l-21 276q-22 -241 -24 -274l-99 -649h232zM350 1745l-10 10l-9.5 9.5l-8.5 8.5t-9 8t-8.5 6t-9 5t-8 2.5t-8.5 1.5q-46 0 -52 -84l-100 8q6 87 42.5 140t94.5 53
q75 0 117 -51q17 -22 28 -30.5t27 -8.5q24 0 36 20t17 66l99 -11q-6 -90 -42 -141t-97 -51q-33 0 -54.5 7.5t-44.5 31.5z" />
    <glyph glyph-name="Adieresis" unicode="&#xc4;" horiz-adv-x="690" 
d="M207 401l-57 -401h-150l264 1634h197l229 -1634h-151q-46 360 -52 401h-280zM465 543q-88 614 -88 647l-21 276q-22 -241 -24 -274l-99 -649h232zM543 1704h-129v199h129v-199zM301 1704h-127v199h127v-199z" />
    <glyph glyph-name="Aring" unicode="&#xc5;" horiz-adv-x="690" 
d="M260 1612q-41 48 -41 106q0 63 41 106.5t100 43.5q60 0 103 -43.5t43 -106.5q0 -61 -43 -104l227 -1614h-151q-46 360 -52 401h-280l-57 -401h-150zM360 1788q-26 0 -44.5 -21t-18.5 -49q0 -27 18.5 -47t44.5 -20q27 0 46.5 20t19.5 47q0 28 -19.5 49t-46.5 21zM465 543
q-88 614 -88 647l-21 276q-22 -241 -24 -274l-99 -649h232z" />
    <glyph glyph-name="AE" unicode="&#xc6;" horiz-adv-x="927" 
d="M918 1634v-143h-361v-594h326v-143h-326v-611h358v-143h-503v389h-193l-69 -389h-152l328 1634h592zM410 1450q-31 -217 -33 -225l-133 -701h166v926z" />
    <glyph glyph-name="Ccedilla" unicode="&#xc7;" horiz-adv-x="731" 
d="M332 -16q-38 3 -68.5 12t-56 26t-45.5 38t-36 54t-27.5 69.5t-20 88.5t-13.5 106t-8.5 128t-4.5 148.5t-1 172.5q0 137 1.5 218t8 179t20 152.5t37 112.5t58 86.5t84.5 46.5t117 18q55 0 100 -10.5t77 -33t56 -49.5t39.5 -68.5t25 -80t14 -94.5t6 -102t1.5 -112h-151
q0 75 -2.5 127.5t-9 101t-18 79t-30 54t-44.5 33.5t-62 10q-30 0 -51.5 -5t-39.5 -20.5t-30 -37t-22 -61t-15 -85t-8.5 -118t-4.5 -150.5t-1 -191q0 -164 2 -266.5t9.5 -187.5t18.5 -128.5t32.5 -73t47.5 -38t68 -8.5q35 0 61.5 12t43 36t27 54t16 71.5t8.5 82.5t5 92
q2 45 3 68h151q-1 -83 -5 -143.5t-14 -126.5t-29.5 -111.5t-48.5 -85t-73.5 -62t-103.5 -28.5v-45q67 0 108 -42.5t41 -111.5q0 -83 -78 -130t-223 -26v88q94 -14 139.5 9t45.5 75q0 70 -127 70v113z" />
    <glyph glyph-name="Egrave" unicode="&#xc8;" horiz-adv-x="632" 
d="M608 0h-528v1634h526v-143h-377v-594h346v-143h-346v-611h379v-143zM449 1704h-132l-143 248h148z" />
    <glyph glyph-name="Eacute" unicode="&#xc9;" horiz-adv-x="632" 
d="M608 0h-528v1634h526v-143h-377v-594h346v-143h-346v-611h379v-143zM246 1704l123 248h149l-147 -248h-125z" />
    <glyph glyph-name="Ecircumflex" unicode="&#xca;" horiz-adv-x="632" 
d="M608 0h-528v1634h526v-143h-377v-594h346v-143h-346v-611h379v-143zM555 1706h-121l-90 158l-88 -158h-119l131 248h158z" />
    <glyph glyph-name="Edieresis" unicode="&#xcb;" horiz-adv-x="632" 
d="M608 0h-528v1634h526v-143h-377v-594h346v-143h-346v-611h379v-143zM528 1704h-129v199h129v-199zM287 1704h-127v199h127v-199z" />
    <glyph glyph-name="Igrave" unicode="&#xcc;" horiz-adv-x="315" 
d="M236 0h-156v1634h156v-1634zM238 1704h-132l-143 248h148z" />
    <glyph glyph-name="Iacute" unicode="&#xcd;" horiz-adv-x="315" 
d="M236 0h-156v1634h156v-1634zM80 1704l123 248h149l-147 -248h-125z" />
    <glyph glyph-name="Icircumflex" unicode="&#xce;" horiz-adv-x="315" 
d="M236 0h-156v1634h156v-1634zM367 1706h-121l-90 158l-88 -158h-119l131 248h158z" />
    <glyph glyph-name="Idieresis" unicode="&#xcf;" horiz-adv-x="315" 
d="M236 0h-156v1634h156v-1634zM342 1704h-129v199h129v-199zM100 1704h-127v199h127v-199z" />
    <glyph glyph-name="Eth" unicode="&#xd0;" horiz-adv-x="731" 
d="M82 741h-64v160h64v733h297q209 0 264 -166q43 -95 43 -616q0 -580 -41 -686q-19 -50 -44 -84t-76 -58t-124 -24h-319v741zM231 901h146v-160h-146v-606h162q104 0 127 96q10 45 15.5 265.5t5.5 355.5q0 100 -7 286t-16 226q-20 123 -139 123h-148v-586z" />
    <glyph glyph-name="Ntilde" unicode="&#xd1;" horiz-adv-x="751" 
d="M672 0h-168l-285 1155v-1155h-139v1634h170l282 -1194v1194h140v-1634zM391 1745l-6 6q-16 16 -24 23.5t-20 14.5t-22 7q-45 0 -51 -84l-100 8q6 87 42.5 140t94.5 53q75 0 117 -51q17 -22 28 -30.5t27 -8.5q24 0 36 20t17 66l99 -11q-6 -90 -42.5 -141t-97.5 -51
q-33 0 -54 7.5t-44 31.5z" />
    <glyph glyph-name="Ograve" unicode="&#xd2;" horiz-adv-x="753" 
d="M379 1640q141 0 209 -71q28 -27 48.5 -65t33.5 -95t20.5 -110t11 -142t4.5 -158t1 -188q0 -177 -3 -275.5t-14.5 -205.5t-36.5 -171t-67 -106q-71 -71 -207 -71q-138 0 -209 71q-33 33 -55.5 86.5t-35 112t-19 155.5t-8 180t-1.5 224q0 175 3 276.5t15 208t37.5 170.5
t67.5 105q72 69 205 69zM379 125q39 0 65.5 10.5t46.5 42.5t31 76.5t18 128t9 180t2 248.5q0 114 -1 192.5t-4.5 153t-8.5 120.5t-14.5 88t-21.5 64t-30.5 38.5t-40 22t-51.5 5.5t-51.5 -5.5t-40 -22t-30.5 -38.5t-21.5 -64t-14.5 -88t-8.5 -120.5t-4.5 -153t-1 -192.5
q0 -115 1 -192.5t4 -153t8 -121.5t14.5 -88t21.5 -64t30.5 -39t40.5 -22.5t52 -5.5zM455 1704h-131l-144 248h148z" />
    <glyph glyph-name="Oacute" unicode="&#xd3;" horiz-adv-x="753" 
d="M379 1640q141 0 209 -71q28 -27 48.5 -65t33.5 -95t20.5 -110t11 -142t4.5 -158t1 -188q0 -177 -3 -275.5t-14.5 -205.5t-36.5 -171t-67 -106q-71 -71 -207 -71q-138 0 -209 71q-33 33 -55.5 86.5t-35 112t-19 155.5t-8 180t-1.5 224q0 175 3 276.5t15 208t37.5 170.5
t67.5 105q72 69 205 69zM379 125q39 0 65.5 10.5t46.5 42.5t31 76.5t18 128t9 180t2 248.5q0 114 -1 192.5t-4.5 153t-8.5 120.5t-14.5 88t-21.5 64t-30.5 38.5t-40 22t-51.5 5.5t-51.5 -5.5t-40 -22t-30.5 -38.5t-21.5 -64t-14.5 -88t-8.5 -120.5t-4.5 -153t-1 -192.5
q0 -115 1 -192.5t4 -153t8 -121.5t14.5 -88t21.5 -64t30.5 -39t40.5 -22.5t52 -5.5zM301 1704l123 248h149l-147 -248h-125z" />
    <glyph glyph-name="Ocircumflex" unicode="&#xd4;" horiz-adv-x="753" 
d="M379 1640q141 0 209 -71q28 -27 48.5 -65t33.5 -95t20.5 -110t11 -142t4.5 -158t1 -188q0 -177 -3 -275.5t-14.5 -205.5t-36.5 -171t-67 -106q-71 -71 -207 -71q-138 0 -209 71q-33 33 -55.5 86.5t-35 112t-19 155.5t-8 180t-1.5 224q0 175 3 276.5t15 208t37.5 170.5
t67.5 105q72 69 205 69zM379 125q39 0 65.5 10.5t46.5 42.5t31 76.5t18 128t9 180t2 248.5q0 114 -1 192.5t-4.5 153t-8.5 120.5t-14.5 88t-21.5 64t-30.5 38.5t-40 22t-51.5 5.5t-51.5 -5.5t-40 -22t-30.5 -38.5t-21.5 -64t-14.5 -88t-8.5 -120.5t-4.5 -153t-1 -192.5
q0 -115 1 -192.5t4 -153t8 -121.5t14.5 -88t21.5 -64t30.5 -39t40.5 -22.5t52 -5.5zM586 1706h-121l-90 158l-88 -158h-119l131 248h158z" />
    <glyph glyph-name="Otilde" unicode="&#xd5;" horiz-adv-x="753" 
d="M379 1640q141 0 209 -71q28 -27 48.5 -65t33.5 -95t20.5 -110t11 -142t4.5 -158t1 -188q0 -177 -3 -275.5t-14.5 -205.5t-36.5 -171t-67 -106q-71 -71 -207 -71q-138 0 -209 71q-33 33 -55.5 86.5t-35 112t-19 155.5t-8 180t-1.5 224q0 175 3 276.5t15 208t37.5 170.5
t67.5 105q72 69 205 69zM379 125q39 0 65.5 10.5t46.5 42.5t31 76.5t18 128t9 180t2 248.5q0 114 -1 192.5t-4.5 153t-8.5 120.5t-14.5 88t-21.5 64t-30.5 38.5t-40 22t-51.5 5.5t-51.5 -5.5t-40 -22t-30.5 -38.5t-21.5 -64t-14.5 -88t-8.5 -120.5t-4.5 -153t-1 -192.5
q0 -115 1 -192.5t4 -153t8 -121.5t14.5 -88t21.5 -64t30.5 -39t40.5 -22.5t52 -5.5zM371 1745l-6 6q-16 16 -24 23.5t-20 14.5t-22 7q-45 0 -51 -84l-101 8q6 87 43 140t95 53q74 0 116 -51q17 -21 28.5 -30t27.5 -9q24 0 36 20t17 66l98 -11q-6 -90 -42 -141t-97 -51
q-33 0 -54 7.5t-44 31.5z" />
    <glyph glyph-name="Odieresis" unicode="&#xd6;" horiz-adv-x="753" 
d="M379 1640q141 0 209 -71q28 -27 48.5 -65t33.5 -95t20.5 -110t11 -142t4.5 -158t1 -188q0 -177 -3 -275.5t-14.5 -205.5t-36.5 -171t-67 -106q-71 -71 -207 -71q-138 0 -209 71q-33 33 -55.5 86.5t-35 112t-19 155.5t-8 180t-1.5 224q0 175 3 276.5t15 208t37.5 170.5
t67.5 105q72 69 205 69zM379 125q39 0 65.5 10.5t46.5 42.5t31 76.5t18 128t9 180t2 248.5q0 114 -1 192.5t-4.5 153t-8.5 120.5t-14.5 88t-21.5 64t-30.5 38.5t-40 22t-51.5 5.5t-51.5 -5.5t-40 -22t-30.5 -38.5t-21.5 -64t-14.5 -88t-8.5 -120.5t-4.5 -153t-1 -192.5
q0 -115 1 -192.5t4 -153t8 -121.5t14.5 -88t21.5 -64t30.5 -39t40.5 -22.5t52 -5.5zM563 1704h-129v199h129v-199zM322 1704h-127v199h127v-199z" />
    <glyph glyph-name="multiply" unicode="&#xd7;" horiz-adv-x="587" 
d="M514 936l-145 -141l145 -144l-78 -86l-143 146l-141 -146l-78 86l143 144l-143 141l78 88l141 -143l143 143z" />
    <glyph glyph-name="Oslash" unicode="&#xd8;" horiz-adv-x="753" 
d="M602 1554q53 -62 70 -157q35 -177 35 -574q0 -127 -2 -209t-11.5 -195.5t-27.5 -205.5q-22 -105 -93.5 -166t-195.5 -61q-96 0 -160 34l-24 -94h-80l37 148q-47 50 -66 131q-33 141 -33 616q0 387 33 576q20 111 93.5 179.5t199.5 68.5q95 0 160 -35l12 51h80zM223 344
l273 1104q-39 55 -117 55q-68 0 -99.5 -34t-46.5 -103q-11 -50 -20.5 -242t-9.5 -311q0 -195 20 -469zM383 127q112 3 137 119q35 165 35 573q0 261 -18 492l-277 -1118q36 -66 123 -66z" />
    <glyph glyph-name="Ugrave" unicode="&#xd9;" horiz-adv-x="739" 
d="M668 291q0 -145 -75 -225t-220 -80q-138 0 -221.5 76.5t-83.5 232.5v1339h149v-1325q0 -180 152 -180q74 0 110.5 43.5t36.5 136.5v1325h152v-1343zM453 1704h-131l-144 248h148z" />
    <glyph glyph-name="Uacute" unicode="&#xda;" horiz-adv-x="739" 
d="M668 291q0 -145 -75 -225t-220 -80q-138 0 -221.5 76.5t-83.5 232.5v1339h149v-1325q0 -180 152 -180q74 0 110.5 43.5t36.5 136.5v1325h152v-1343zM283 1704l123 248h149l-147 -248h-125z" />
    <glyph glyph-name="Ucircumflex" unicode="&#xdb;" horiz-adv-x="739" 
d="M668 291q0 -145 -75 -225t-220 -80q-138 0 -221.5 76.5t-83.5 232.5v1339h149v-1325q0 -180 152 -180q74 0 110.5 43.5t36.5 136.5v1325h152v-1343zM571 1706h-120l-91 158l-88 -158h-118l131 248h157z" />
    <glyph glyph-name="Udieresis" unicode="&#xdc;" horiz-adv-x="739" 
d="M668 291q0 -145 -75 -225t-220 -80q-138 0 -221.5 76.5t-83.5 232.5v1339h149v-1325q0 -180 152 -180q74 0 110.5 43.5t36.5 136.5v1325h152v-1343zM557 1704h-129v199h129v-199zM315 1704h-127v199h127v-199z" />
    <glyph glyph-name="Yacute" unicode="&#xdd;" horiz-adv-x="729" 
d="M729 1634l-297 -1038v-596h-153v592l-279 1042h158q200 -773 202 -841q0 31 53.5 241.5t106.5 405.5l53 194h156zM266 1704l123 248h150l-148 -248h-125z" />
    <glyph glyph-name="Thorn" unicode="&#xde;" horiz-adv-x="706" 
d="M236 1634v-305h155q222 0 250 -225q27 -95 27 -262q0 -176 -29 -264q-17 -108 -79.5 -164t-160.5 -58h-166v-356h-153v1634h156zM512 838q0 100 -4 133q-4 118 -37.5 161.5t-103.5 43.5h-134v-676h136q64 0 99 48t40 134q4 29 4 156z" />
    <glyph glyph-name="germandbls" unicode="&#xdf;" horiz-adv-x="872" 
d="M362 1513q-60 0 -85 -36t-25 -109v-1368h-143v995h-99v131h99v248q0 135 68 203t194 68q107 0 174 -65.5t67 -182.5q0 -62 -23.5 -123.5t-51 -104.5t-51 -107.5t-23.5 -133.5q0 -48 7.5 -83t27.5 -64t34 -43.5t46 -43.5q11 -11 27.5 -24.5t42 -32t34.5 -25.5
q86 -56 125 -134t39 -202q0 -288 -258 -288q-121 0 -185 47.5t-71 152.5q-1 22 -3 81.5t-3 80.5h143v-149q9 -101 119 -101q62 0 89.5 36.5t27.5 127.5q0 89 -25 144.5t-82 95.5q-50 37 -100 84q-80 51 -125 127t-45 205q0 69 21.5 134.5t47 107.5t47 96.5t21.5 103.5
q0 76 -22.5 113.5t-80.5 37.5z" />
    <glyph glyph-name="agrave" unicode="&#xe0;" horiz-adv-x="595" 
d="M561 0h-129q-14 0 -16 82q-53 -90 -185 -90q-84 0 -139.5 52t-58.5 149q-4 118 0 182q13 226 235 280q64 18 144 25v227q-3 103 -99 103q-94 0 -108 -86q-8 -49 -8 -181h-131q-3 129 14 222q15 82 75 128t162 46q115 0 171 -56t59 -155q0 -328 -2 -432q0 -61 -1 -188.5
t-1 -157.5q0 -42 6 -88t12 -62zM414 561q-9 -1 -37.5 -4t-44.5 -6q-85 -17 -117 -49q-39 -39 -45 -142q-4 -61 2 -153q8 -92 104 -92q93 0 125 96q6 19 8.5 52.5t2.5 93.5v79q2 29 2 125zM408 1198h-132l-143 248h148z" />
    <glyph glyph-name="aacute" unicode="&#xe1;" horiz-adv-x="595" 
d="M561 0h-129q-14 0 -16 82q-53 -90 -185 -90q-84 0 -139.5 52t-58.5 149q-4 118 0 182q13 226 235 280q64 18 144 25v227q-3 103 -99 103q-94 0 -108 -86q-8 -49 -8 -181h-131q-3 129 14 222q15 82 75 128t162 46q115 0 171 -56t59 -155q0 -328 -2 -432q0 -61 -1 -188.5
t-1 -157.5q0 -42 6 -88t12 -62zM414 561q-9 -1 -37.5 -4t-44.5 -6q-85 -17 -117 -49q-39 -39 -45 -142q-4 -61 2 -153q8 -92 104 -92q93 0 125 96q6 19 8.5 52.5t2.5 93.5v79q2 29 2 125zM217 1198l123 248h149l-147 -248h-125z" />
    <glyph glyph-name="acircumflex" unicode="&#xe2;" horiz-adv-x="595" 
d="M561 0h-129q-14 0 -16 82q-53 -90 -185 -90q-84 0 -139.5 52t-58.5 149q-4 118 0 182q13 226 235 280q64 18 144 25v227q-3 103 -99 103q-94 0 -108 -86q-8 -49 -8 -181h-131q-3 129 14 222q15 82 75 128t162 46q115 0 171 -56t59 -155q0 -328 -2 -432q0 -61 -1 -188.5
t-1 -157.5q0 -42 6 -88t12 -62zM414 561q-9 -1 -37.5 -4t-44.5 -6q-85 -17 -117 -49q-39 -39 -45 -142q-4 -61 2 -153q8 -92 104 -92q93 0 125 96q6 19 8.5 52.5t2.5 93.5v79q2 29 2 125zM516 1200h-121l-90 158l-88 -158h-119l131 248h158z" />
    <glyph glyph-name="atilde" unicode="&#xe3;" horiz-adv-x="595" 
d="M561 0h-129q-14 0 -16 82q-53 -90 -185 -90q-84 0 -139.5 52t-58.5 149q-4 118 0 182q13 226 235 280q64 18 144 25v227q-3 103 -99 103q-94 0 -108 -86q-8 -49 -8 -181h-131q-3 129 14 222q15 82 75 128t162 46q115 0 171 -56t59 -155q0 -328 -2 -432q0 -61 -1 -188.5
t-1 -157.5q0 -42 6 -88t12 -62zM414 561q-9 -1 -37.5 -4t-44.5 -6q-85 -17 -117 -49q-39 -39 -45 -142q-4 -61 2 -153q8 -92 104 -92q93 0 125 96q6 19 8.5 52.5t2.5 93.5v79q2 29 2 125zM307 1239l-10 10l-9.5 9.5l-8.5 8.5t-9 8t-8.5 6t-9 5t-8 2.5t-8.5 1.5
q-46 0 -52 -84l-100 8q6 87 42.5 140t94.5 53q75 0 117 -51q17 -22 28 -30.5t27 -8.5q24 0 36 20t17 66l99 -10q-6 -90 -42 -141.5t-97 -51.5q-33 0 -54.5 7.5t-44.5 31.5z" />
    <glyph glyph-name="adieresis" unicode="&#xe4;" horiz-adv-x="595" 
d="M561 0h-129q-14 0 -16 82q-53 -90 -185 -90q-84 0 -139.5 52t-58.5 149q-4 118 0 182q13 226 235 280q64 18 144 25v227q-3 103 -99 103q-94 0 -108 -86q-8 -49 -8 -181h-131q-3 129 14 222q15 82 75 128t162 46q115 0 171 -56t59 -155q0 -328 -2 -432q0 -61 -1 -188.5
t-1 -157.5q0 -42 6 -88t12 -62zM414 561q-9 -1 -37.5 -4t-44.5 -6q-85 -17 -117 -49q-39 -39 -45 -142q-4 -61 2 -153q8 -92 104 -92q93 0 125 96q6 19 8.5 52.5t2.5 93.5v79q2 29 2 125zM496 1198h-129v199h129v-199zM254 1198h-127v199h127v-199z" />
    <glyph glyph-name="aring" unicode="&#xe5;" horiz-adv-x="595" 
d="M561 0h-129q-14 0 -16 82q-53 -90 -185 -90q-84 0 -139.5 52t-58.5 149q-4 118 0 182q13 226 235 280q64 18 144 25v227q-3 103 -99 103q-94 0 -108 -86q-8 -49 -8 -181h-131q-3 129 14 222q15 82 75 128t162 46q115 0 171 -56t59 -155q0 -328 -2 -432q0 -61 -1 -188.5
t-1 -157.5q0 -42 6 -88t12 -62zM414 561q-9 -1 -37.5 -4t-44.5 -6q-85 -17 -117 -49q-39 -39 -45 -142q-4 -61 2 -153q8 -92 104 -92q93 0 125 96q6 19 8.5 52.5t2.5 93.5v79q2 29 2 125zM317 1495q60 0 103 -43t43 -106q0 -62 -43 -106t-103 -44q-58 0 -99.5 44t-41.5 106
q0 63 41 106t100 43zM317 1415q-26 0 -44.5 -20.5t-18.5 -48.5q0 -27 18.5 -47.5t44.5 -20.5q27 0 46.5 20.5t19.5 47.5q0 28 -19.5 48.5t-46.5 20.5z" />
    <glyph glyph-name="ae" unicode="&#xe6;" horiz-adv-x="954" 
d="M676 1141q160 0 219 -129q24 -51 29.5 -160.5t3.5 -349.5h-381q0 -206 18 -307q7 -38 37.5 -61t73.5 -23q91 0 106 75q13 66 13 154h131q0 -148 -31 -221q-29 -68 -82 -99.5t-139 -31.5q-160 0 -217 114q-32 -64 -85 -87t-126 -23q-86 0 -148 52.5t-65 148.5
q-4 118 0 182q13 226 235 280q64 18 144 25v227q-3 103 -99 103q-94 0 -108 -86q-8 -49 -8 -195h-131q-3 141 14 236q15 82 75 128t162 46q70 0 115 -24.5t64 -61.5q13 41 62.5 64.5t117.5 23.5zM793 623q0 51 -5 170t-12 143q-17 76 -104 76q-39 0 -69.5 -21t-39.5 -55
q-6 -23 -10 -59.5t-5.5 -78t-1.5 -73t0.5 -66.5t0.5 -36h246zM414 561q-9 -1 -37.5 -4t-44.5 -6q-85 -17 -117 -49q-39 -39 -45 -142q-4 -61 2 -153q8 -92 104 -92q93 0 125 96q6 19 8.5 52.5t2.5 93.5v79q2 29 2 125z" />
    <glyph glyph-name="ccedilla" unicode="&#xe7;" 
d="M258 -10q-100 13 -147 94q-68 122 -68 479q0 345 66 467q61 111 200 111q129 0 184.5 -84t55.5 -262v-72h-133v24q0 51 -0.5 75t-3 61t-9.5 54.5t-18.5 36.5t-30.5 26.5t-45 7.5q-80 0 -104.5 -102t-24.5 -343q0 -196 13.5 -293.5t37.5 -126t72 -28.5q24 0 42.5 8.5
t30.5 19.5t20.5 35t12.5 42t6 53t2.5 56.5t0.5 63.5h131q5 -185 -43.5 -283.5t-153.5 -117.5v-43q67 0 108.5 -42.5t41.5 -111.5q0 -83 -78 -129.5t-223 -25.5v88q94 -14 139 9t45 75q0 38 -32.5 53.5t-94.5 15.5v109z" />
    <glyph glyph-name="egrave" unicode="&#xe8;" horiz-adv-x="595" 
d="M555 340q0 -185 -60.5 -268.5t-185.5 -83.5q-82 0 -133 25t-80 89q-53 114 -53 449q0 363 70 487q59 103 192 103q145 0 199.5 -97.5t54.5 -312.5v-229h-381q0 -230 23 -310.5t104 -80.5q72 0 95.5 49.5t23.5 179.5h131zM424 623v143q0 131 -23.5 188.5t-99.5 57.5
q-49 0 -73 -25t-37 -109.5t-13 -254.5h246zM393 1198h-131l-143 248h147z" />
    <glyph glyph-name="eacute" unicode="&#xe9;" horiz-adv-x="595" 
d="M555 340q0 -185 -60.5 -268.5t-185.5 -83.5q-82 0 -133 25t-80 89q-53 114 -53 449q0 363 70 487q59 103 192 103q145 0 199.5 -97.5t54.5 -312.5v-229h-381q0 -230 23 -310.5t104 -80.5q72 0 95.5 49.5t23.5 179.5h131zM424 623v143q0 131 -23.5 188.5t-99.5 57.5
q-49 0 -73 -25t-37 -109.5t-13 -254.5h246zM219 1198l123 248h150l-148 -248h-125z" />
    <glyph glyph-name="ecircumflex" unicode="&#xea;" horiz-adv-x="595" 
d="M555 340q0 -185 -60.5 -268.5t-185.5 -83.5q-82 0 -133 25t-80 89q-53 114 -53 449q0 363 70 487q59 103 192 103q145 0 199.5 -97.5t54.5 -312.5v-229h-381q0 -230 23 -310.5t104 -80.5q72 0 95.5 49.5t23.5 179.5h131zM424 623v143q0 131 -23.5 188.5t-99.5 57.5
q-49 0 -73 -25t-37 -109.5t-13 -254.5h246zM516 1200h-121l-90 158l-88 -158h-119l131 248h158z" />
    <glyph glyph-name="edieresis" unicode="&#xeb;" horiz-adv-x="595" 
d="M555 340q0 -185 -60.5 -268.5t-185.5 -83.5q-82 0 -133 25t-80 89q-53 114 -53 449q0 363 70 487q59 103 192 103q145 0 199.5 -97.5t54.5 -312.5v-229h-381q0 -230 23 -310.5t104 -80.5q72 0 95.5 49.5t23.5 179.5h131zM424 623v143q0 131 -23.5 188.5t-99.5 57.5
q-49 0 -73 -25t-37 -109.5t-13 -254.5h246zM492 1198h-130v199h130v-199zM250 1198h-127v199h127v-199z" />
    <glyph glyph-name="igrave" unicode="&#xec;" horiz-adv-x="272" 
d="M217 0h-141q-1 0 -3.5 11.5t-4.5 31.5t-2 39v1044h141v-1032q0 -21 2 -43.5t4.5 -36t3.5 -14.5zM215 1198h-131l-143 248h147z" />
    <glyph glyph-name="iacute" unicode="&#xed;" horiz-adv-x="272" 
d="M217 0h-141q-1 0 -3.5 11.5t-4.5 31.5t-2 39v1044h141v-1032q0 -21 2 -43.5t4.5 -36t3.5 -14.5zM57 1198l123 248h150l-148 -248h-125z" />
    <glyph glyph-name="icircumflex" unicode="&#xee;" horiz-adv-x="272" 
d="M217 0h-141q-1 0 -3.5 11.5t-4.5 31.5t-2 39v1044h141v-1032q0 -21 2 -43.5t4.5 -36t3.5 -14.5zM346 1200h-121l-90 158l-88 -158h-119l131 248h158z" />
    <glyph glyph-name="idieresis" unicode="&#xef;" horiz-adv-x="272" 
d="M217 0h-141q-1 0 -3.5 11.5t-4.5 31.5t-2 39v1044h141v-1032q0 -21 2 -43.5t4.5 -36t3.5 -14.5zM322 1198h-129v199h129v-199zM80 1198h-127v199h127v-199z" />
    <glyph glyph-name="eth" unicode="&#xf0;" horiz-adv-x="634" 
d="M438 1204q-25 -14 -55 -14q-50 0 -86 35t-49 96l65 25q15 -80 68 -80q31 0 53 22q-4 74 -4 84q-8 76 -35 113t-84 37q-53 0 -76.5 -21t-29.5 -67v-43h-139q0 19 4 73q12 78 73 130.5t168 52.5q112 0 172 -62.5t74 -171.5q1 -8 4 -27.5t4 -33.5q26 16 62 16q51 0 84 -35
t47 -94l-64 -29q-18 82 -69 82q-23 0 -52 -22q19 -233 19 -348q0 -514 -23 -686q-21 -127 -78 -187.5t-176 -60.5q-109 0 -169 46t-85 150q-21 99 -20 360.5t20 373.5q20 71 74.5 116t140.5 45q63 0 102 -22.5t68 -71.5q0 104 -8 219zM195 246q9 -73 36.5 -100t83.5 -27
q61 0 89.5 31t35.5 110q3 37 6 248.5t3 296.5q-9 61 -40.5 104t-93.5 43q-92 0 -116 -100q-9 -48 -11 -303t7 -303z" />
    <glyph glyph-name="ntilde" unicode="&#xf1;" horiz-adv-x="608" 
d="M555 0h-137q-4 0 -4 905q0 53 -22.5 78t-72.5 25q-54 0 -86 -40.5t-32 -127.5v-840h-138v1126h132v-110q16 63 65.5 93t112.5 30q178 0 178 -205q0 -934 4 -934zM299 1239l-6 6q-16 16 -24 23.5t-20 14.5t-22 7q-45 0 -51 -84l-100 8q6 87 42.5 140t94.5 53q75 0 117 -51
q17 -22 28 -30.5t27 -8.5q24 0 36 20t17 66l99 -10q-6 -90 -42.5 -141.5t-97.5 -51.5q-33 0 -54 7.5t-44 31.5z" />
    <glyph glyph-name="ograve" unicode="&#xf2;" horiz-adv-x="618" 
d="M575 563q0 -179 -13.5 -289.5t-49.5 -175.5q-56 -110 -203 -110q-143 0 -203 108q-35 66 -49 178t-14 289q0 183 16 298.5t56 180.5q60 99 196 99q143 0 199 -97q37 -65 51 -178.5t14 -302.5zM438 561q0 77 -0.5 125t-2.5 99t-5.5 80t-10.5 58t-16 42.5t-23 25.5
t-31 15.5t-40 3.5q-53 0 -79.5 -34.5t-38 -128.5t-11.5 -286q0 -94 1 -149.5t5.5 -112.5t12.5 -86.5t22.5 -54.5t35.5 -34t52 -9q83 0 106 90.5t23 355.5zM393 1198h-131l-143 248h147z" />
    <glyph glyph-name="oacute" unicode="&#xf3;" horiz-adv-x="618" 
d="M575 563q0 -179 -13.5 -289.5t-49.5 -175.5q-56 -110 -203 -110q-143 0 -203 108q-35 66 -49 178t-14 289q0 183 16 298.5t56 180.5q60 99 196 99q143 0 199 -97q37 -65 51 -178.5t14 -302.5zM438 561q0 77 -0.5 125t-2.5 99t-5.5 80t-10.5 58t-16 42.5t-23 25.5
t-31 15.5t-40 3.5q-53 0 -79.5 -34.5t-38 -128.5t-11.5 -286q0 -94 1 -149.5t5.5 -112.5t12.5 -86.5t22.5 -54.5t35.5 -34t52 -9q83 0 106 90.5t23 355.5zM223 1198l123 248h150l-148 -248h-125z" />
    <glyph glyph-name="ocircumflex" unicode="&#xf4;" horiz-adv-x="618" 
d="M575 563q0 -179 -13.5 -289.5t-49.5 -175.5q-56 -110 -203 -110q-143 0 -203 108q-35 66 -49 178t-14 289q0 183 16 298.5t56 180.5q60 99 196 99q143 0 199 -97q37 -65 51 -178.5t14 -302.5zM438 561q0 77 -0.5 125t-2.5 99t-5.5 80t-10.5 58t-16 42.5t-23 25.5
t-31 15.5t-40 3.5q-53 0 -79.5 -34.5t-38 -128.5t-11.5 -286q0 -94 1 -149.5t5.5 -112.5t12.5 -86.5t22.5 -54.5t35.5 -34t52 -9q83 0 106 90.5t23 355.5zM520 1200h-121l-90 158l-88 -158h-119l131 248h158z" />
    <glyph glyph-name="otilde" unicode="&#xf5;" horiz-adv-x="618" 
d="M575 563q0 -179 -13.5 -289.5t-49.5 -175.5q-56 -110 -203 -110q-143 0 -203 108q-35 66 -49 178t-14 289q0 183 16 298.5t56 180.5q60 99 196 99q143 0 199 -97q37 -65 51 -178.5t14 -302.5zM438 561q0 77 -0.5 125t-2.5 99t-5.5 80t-10.5 58t-16 42.5t-23 25.5
t-31 15.5t-40 3.5q-53 0 -79.5 -34.5t-38 -128.5t-11.5 -286q0 -94 1 -149.5t5.5 -112.5t12.5 -86.5t22.5 -54.5t35.5 -34t52 -9q83 0 106 90.5t23 355.5zM309 1239l-10 10l-9.5 9.5l-8.5 8.5t-9 8t-8.5 6t-9 5t-8 2.5t-8.5 1.5q-46 0 -52 -84l-100 8q6 87 42.5 140t94.5 53
q75 0 117 -51q17 -22 28 -30.5t27 -8.5q25 0 37 20t17 66l98 -10q-6 -90 -42 -141.5t-97 -51.5q-33 0 -54.5 7.5t-44.5 31.5z" />
    <glyph glyph-name="odieresis" unicode="&#xf6;" horiz-adv-x="618" 
d="M575 563q0 -179 -13.5 -289.5t-49.5 -175.5q-56 -110 -203 -110q-143 0 -203 108q-35 66 -49 178t-14 289q0 183 16 298.5t56 180.5q60 99 196 99q143 0 199 -97q37 -65 51 -178.5t14 -302.5zM438 561q0 77 -0.5 125t-2.5 99t-5.5 80t-10.5 58t-16 42.5t-23 25.5
t-31 15.5t-40 3.5q-53 0 -79.5 -34.5t-38 -128.5t-11.5 -286q0 -94 1 -149.5t5.5 -112.5t12.5 -86.5t22.5 -54.5t35.5 -34t52 -9q83 0 106 90.5t23 355.5zM500 1198h-129v199h129v-199zM258 1198h-127v199h127v-199z" />
    <glyph glyph-name="divide" unicode="&#xf7;" horiz-adv-x="604" 
d="M362 985h-120v139h120v-139zM580 762h-555v115h555v-115zM362 516h-120v139h120v-139z" />
    <glyph glyph-name="oslash" unicode="&#xf8;" horiz-adv-x="616" 
d="M137 51q-38 38 -57 103q-37 127 -37 409q0 242 33 391q20 86 79 136.5t156 50.5q63 0 117 -23l14 56h68l-27 -95q47 -44 62 -121q30 -141 30 -395q0 -287 -36 -409q-24 -83 -84 -124.5t-146 -41.5q-67 0 -116 24l-19 -63h-65zM190 252l201 731q-31 31 -82 31
q-89 0 -110 -101q-23 -101 -23 -352q0 -162 14 -309zM428 874l-201 -731q28 -32 82 -32q42 0 72 23.5t39 68.5q9 49 15.5 161t6.5 197q0 166 -14 313z" />
    <glyph glyph-name="ugrave" unicode="&#xf9;" horiz-adv-x="612" 
d="M555 0h-135l-4 70q-45 -78 -166 -78q-89 0 -140 53.5t-51 165.5v915h140v-901q0 -112 98 -112q55 0 85 38t30 109v866h139v-987q0 -111 4 -139zM408 1198h-132l-143 248h148z" />
    <glyph glyph-name="uacute" unicode="&#xfa;" horiz-adv-x="612" 
d="M555 0h-135l-4 70q-45 -78 -166 -78q-89 0 -140 53.5t-51 165.5v915h140v-901q0 -112 98 -112q55 0 85 38t30 109v866h139v-987q0 -111 4 -139zM217 1198l123 248h149l-147 -248h-125z" />
    <glyph glyph-name="ucircumflex" unicode="&#xfb;" horiz-adv-x="612" 
d="M555 0h-135l-4 70q-45 -78 -166 -78q-89 0 -140 53.5t-51 165.5v915h140v-901q0 -112 98 -112q55 0 85 38t30 109v866h139v-987q0 -111 4 -139zM514 1200h-121l-90 158l-88 -158h-119l131 248h158z" />
    <glyph glyph-name="udieresis" unicode="&#xfc;" horiz-adv-x="612" 
d="M555 0h-135l-4 70q-45 -78 -166 -78q-89 0 -140 53.5t-51 165.5v915h140v-901q0 -112 98 -112q55 0 85 38t30 109v866h139v-987q0 -111 4 -139zM489 1198h-129v199h129v-199zM248 1198h-127v199h127v-199z" />
    <glyph glyph-name="yacute" unicode="&#xfd;" horiz-adv-x="587" 
d="M584 1126l-301 -1460h-142l82 389l-219 1071h141q0 -6 74 -411t74 -410q2 8 77 410.5t76 410.5h138zM195 1198l122 248h150l-148 -248h-124z" />
    <glyph glyph-name="thorn" unicode="&#xfe;" horiz-adv-x="624" 
d="M584 584q0 -338 -31 -430q-17 -76 -66.5 -117t-119.5 -41q-124 0 -168 67v-397h-136v1970h134v-602q17 51 63.5 78t110.5 27q74 0 118 -34t64 -112q31 -133 31 -409zM446 578q0 249 -20 352q-19 76 -102 76q-84 0 -105 -99q-22 -146 -22 -329q0 -280 20 -383
q22 -72 107 -72q88 0 104 90q18 102 18 365z" />
    <glyph glyph-name="ydieresis" unicode="&#xff;" horiz-adv-x="587" 
d="M584 1126l-301 -1460h-142l82 389l-219 1071h141q0 -6 74 -411t74 -410q2 8 77 410.5t76 410.5h138zM481 1198h-129v199h129v-199zM240 1198h-127v199h127v-199z" />
    <glyph glyph-name="dotlessi" unicode="&#x131;" horiz-adv-x="272" 
d="M217 0h-141q-1 0 -3.5 11.5t-4.5 31.5t-2 39v1044h141v-1032q0 -21 2 -43.5t4.5 -36t3.5 -14.5z" />
    <glyph glyph-name="Lslash" unicode="&#x141;" horiz-adv-x="616" 
d="M233 616v-466h367v-150h-520v555l-57 -29v105l57 28v975h153v-911l201 92v-106z" />
    <glyph glyph-name="lslash" unicode="&#x142;" horiz-adv-x="274" 
d="M207 602v-514q0 -72 4 -88h-135q-8 8 -8 66v477l-58 -29v109l58 26v891q0 66 -5 96h140l1 -10q1 -11 2 -27t1 -30v-858l55 26v-108z" />
    <glyph glyph-name="OE" unicode="&#x152;" horiz-adv-x="1062" 
d="M567 1634h482v-143h-377v-594h342v-143h-342v-611h377v-143h-484v0v1v1v1v1v1v1v1v1v1v1v2v1v1v1v2v1v1v2v1v2v2v1v2v2v2v1v2v2v2v2v2v2v3v2v2v3v2v10q-27 -34 -77 -58t-115 -24q-128 0 -201.5 68t-93.5 208q-11 42 -19 229t-8 330q0 161 7 333t20 210q42 281 293 281
q63 0 116 -18.5t80 -51.5v59zM381 131q120 0 139 117q4 55 4 573q0 484 -2 539q-11 69 -43.5 102t-99.5 33q-69 0 -103 -37t-49 -110q-8 -49 -14 -231t-6 -304q0 -134 5.5 -314t14.5 -229q16 -68 52 -103.5t102 -35.5z" />
    <glyph glyph-name="oe" unicode="&#x153;" horiz-adv-x="980" 
d="M700 1141q161 0 220 -129q24 -50 29 -158t3 -352h-381q0 -200 19 -307q8 -38 37.5 -61t72.5 -23q92 0 107 75q12 61 12 154h131q0 -151 -30 -221q-29 -68 -82.5 -99.5t-139.5 -31.5q-148 0 -194 102q-28 -51 -72 -76.5t-123 -25.5q-87 0 -146.5 42.5t-82.5 123.5
q-37 127 -37 409q0 242 33 391q20 86 79 136.5t156 50.5q60 0 102 -14.5t60 -31t37 -44.5q16 36 64 63t126 27zM817 623q0 53 -4.5 171t-11.5 142q-17 76 -105 76q-38 0 -68.5 -21t-39.5 -55q-5 -19 -9 -49.5t-5.5 -60t-2.5 -65.5t-1 -60t0.5 -49.5t0.5 -28.5h246zM438 561
q0 268 -16 352q-21 97 -113 97q-89 0 -110 -101q-19 -83 -19 -348q0 -262 19 -354q9 -45 38.5 -68.5t71.5 -23.5t72 23.5t39 68.5q18 102 18 354z" />
    <glyph glyph-name="Scaron" unicode="&#x160;" horiz-adv-x="679" 
d="M643 334q0 -175 -79.5 -261.5t-231.5 -86.5q-132 0 -208.5 64.5t-84.5 170.5q-6 82 -6 217h145q0 -112 6 -186q11 -131 154 -131q77 0 115.5 47.5t38.5 150.5q0 72 -13 136t-31.5 109.5t-51.5 94.5t-58.5 79t-67.5 75q-37 40 -51.5 56t-47 55t-47 63.5t-37 67t-32.5 80
t-18 88.5t-8 106q0 150 77.5 233t227.5 83q138 0 211.5 -80t81.5 -205q6 -88 6 -176h-150q0 103 -4 162q-5 76 -38 116.5t-107 40.5q-81 0 -116.5 -43.5t-35.5 -138.5q0 -64 14 -118.5t45.5 -105t58 -83t73.5 -84.5q104 -114 144 -172q126 -183 126 -424zM129 1958h123
l86 -156l88 156h123l-129 -250h-162z" />
    <glyph glyph-name="scaron" unicode="&#x161;" horiz-adv-x="559" 
d="M528 291q0 -151 -64 -227t-183 -76q-240 0 -252 225q-2 43 -2 125h131q0 -74 2 -125q3 -51 32.5 -79t83.5 -28q119 0 119 170q0 47 -10.5 84.5t-32.5 66t-43 47.5t-55 42q-5 4 -30.5 22t-32.5 23t-29.5 23.5t-30 28t-25.5 30t-25 36t-19 40t-16.5 48.5t-8.5 55t-4 65
q0 113 62 183.5t181 70.5q197 0 228 -180q6 -33 6 -181h-131q0 128 -2 140q-4 40 -29.5 68t-77.5 28q-104 0 -104 -135q0 -42 10.5 -77.5t23 -58t39 -48t42.5 -37.5t51 -35q31 -21 49 -34.5t50 -45.5t50 -64t32.5 -82.5t14.5 -107.5zM68 1452h122l86 -156l89 156h122
l-129 -250h-161z" />
    <glyph glyph-name="Ydieresis" unicode="&#x178;" horiz-adv-x="729" 
d="M729 1634l-297 -1038v-596h-153v592l-279 1042h158q200 -773 202 -841q0 31 53.5 241.5t106.5 405.5l53 194h156zM553 1704h-129v199h129v-199zM311 1704h-127v199h127v-199z" />
    <glyph glyph-name="Zcaron" unicode="&#x17d;" horiz-adv-x="620" 
d="M610 0h-592v131l418 1360h-393v143h555v-121l-424 -1372h436v-141zM100 1958h123l86 -156l88 156h123l-129 -250h-162z" />
    <glyph glyph-name="zcaron" unicode="&#x17e;" horiz-adv-x="507" 
d="M489 0h-469v131l322 868h-315v127h456v-137l-325 -862h331v-127zM43 1452h123l86 -156l88 156h123l-129 -250h-162z" />
    <glyph glyph-name="florin" unicode="&#x192;" horiz-adv-x="542" 
d="M242 -74q-9 -101 -58.5 -157t-138.5 -56q-29 0 -98 6v129q11 0 35.5 -1t37.5 -1q34 0 55.5 25t24.5 61q0 1 24.5 265t49.5 530.5t25 271.5h-97v131h109l27 306q24 211 208 211q27 0 44 -1.5t34.5 -5l22.5 -4.5l-2 -125q-10 0 -37 2.5t-39 2.5q-79 -3 -90 -86l-27 -302
h133v-129h-145q0 -5 -49 -538t-49 -535z" />
    <glyph glyph-name="circumflex" unicode="&#x2c6;" 
d="M502 1200h-121l-90 158l-88 -158h-119l131 248h158z" />
    <glyph glyph-name="caron" unicode="&#x2c7;" 
d="M82 1452h123l86 -156l88 156h123l-129 -250h-162z" />
    <glyph glyph-name="breve" unicode="&#x2d8;" 
d="M502 1401q0 -94 -55.5 -150.5t-153.5 -56.5q-99 0 -155 56t-56 151h115q0 -46 24 -74.5t70 -28.5q98 0 98 103h113z" />
    <glyph glyph-name="dotaccent" unicode="&#x2d9;" 
d="M360 1200h-135v197h135v-197z" />
    <glyph glyph-name="ring" unicode="&#x2da;" 
d="M291 1495q60 0 102.5 -43t42.5 -106q0 -62 -42.5 -106t-102.5 -44q-58 0 -99.5 44t-41.5 106q0 63 41 106t100 43zM291 1415q-26 0 -45 -20.5t-19 -48.5q0 -27 19 -47.5t45 -20.5q27 0 46 20.5t19 47.5q0 28 -19 48.5t-46 20.5z" />
    <glyph glyph-name="ogonek" unicode="&#x2db;" horiz-adv-x="612" 
d="M281 -170q0 -37 26 -67.5t80 -43.5v-84q-110 26 -162.5 77.5t-52.5 117.5q0 60 44 105t126 65l39 -43q-100 -44 -100 -127z" />
    <glyph glyph-name="tilde" unicode="&#x2dc;" 
d="M287 1239l-6 6q-16 16 -24 23.5t-20 14.5t-22 7q-45 0 -51 -84l-101 8q6 87 43 140t95 53q74 0 116 -51q17 -21 28.5 -30t27.5 -9q24 0 36 20t17 66l98 -10q-6 -90 -42 -141.5t-97 -51.5q-33 0 -54 7.5t-44 31.5z" />
    <glyph glyph-name="hungarumlaut" unicode="&#x2dd;" 
d="M303 1198l82 248h131l-104 -248h-109zM123 1198l84 248h131l-102 -248h-113z" />
    <glyph glyph-name="Delta" unicode="&#x394;" horiz-adv-x="710" 
d="M322 1051v448h-312v129h690v-129h-317v-448q84 -14 141.5 -78.5t57.5 -149.5q0 -86 -58 -150t-143 -75v-446h319v-142h-690v142h309v446q-84 12 -140 75.5t-56 149.5q0 85 57.5 149.5t141.5 78.5zM199 737q19 5 88 25q-51 -64 -54 -68q40 -35 86 -43v97l31 67l31 -67v-97
q51 9 88 43q-7 10 -27 34t-28 36q85 -23 92 -25q22 39 22 84q0 47 -24 88q-38 -9 -92 -24q1 2 55 69q-37 32 -84 41v-96l-33 -70l-28 70v96q-42 -8 -86 -43q7 -10 26.5 -34t28.5 -37q-46 15 -94 22q-21 -44 -21 -82q0 -42 23 -86z" />
    <glyph glyph-name="Delta" unicode="&#x2206;" horiz-adv-x="710" 
d="M322 1051v448h-312v129h690v-129h-317v-448q84 -14 141.5 -78.5t57.5 -149.5q0 -86 -58 -150t-143 -75v-446h319v-142h-690v142h309v446q-84 12 -140 75.5t-56 149.5q0 85 57.5 149.5t141.5 78.5zM199 737q19 5 88 25q-51 -64 -54 -68q40 -35 86 -43v97l31 67l31 -67v-97
q51 9 88 43q-7 10 -27 34t-28 36q85 -23 92 -25q22 39 22 84q0 47 -24 88q-38 -9 -92 -24q1 2 55 69q-37 32 -84 41v-96l-33 -70l-28 70v96q-42 -8 -86 -43q7 -10 26.5 -34t28.5 -37q-46 15 -94 22q-21 -44 -21 -82q0 -42 23 -86z" />
    <glyph glyph-name="Omega" unicode="&#x3a9;" horiz-adv-x="710" 
d="M322 1051v448h-312v129h690v-129h-317v-448q84 -14 141.5 -78.5t57.5 -149.5q0 -86 -58 -150t-143 -75v-446h319v-142h-690v142h309v446q-84 12 -140 75.5t-56 149.5q0 85 57.5 149.5t141.5 78.5zM199 737q19 5 88 25q-51 -64 -54 -68q40 -35 86 -43v97l31 67l31 -67v-97
q51 9 88 43q-7 10 -27 34t-28 36q85 -23 92 -25q22 39 22 84q0 47 -24 88q-38 -9 -92 -24q1 2 55 69q-37 32 -84 41v-96l-33 -70l-28 70v96q-42 -8 -86 -43q7 -10 26.5 -34t28.5 -37q-46 15 -94 22q-21 -44 -21 -82q0 -42 23 -86z" />
    <glyph glyph-name="Omega" unicode="&#x2126;" horiz-adv-x="710" 
d="M322 1051v448h-312v129h690v-129h-317v-448q84 -14 141.5 -78.5t57.5 -149.5q0 -86 -58 -150t-143 -75v-446h319v-142h-690v142h309v446q-84 12 -140 75.5t-56 149.5q0 85 57.5 149.5t141.5 78.5zM199 737q19 5 88 25q-51 -64 -54 -68q40 -35 86 -43v97l31 67l31 -67v-97
q51 9 88 43q-7 10 -27 34t-28 36q85 -23 92 -25q22 39 22 84q0 47 -24 88q-38 -9 -92 -24q1 2 55 69q-37 32 -84 41v-96l-33 -70l-28 70v96q-42 -8 -86 -43q7 -10 26.5 -34t28.5 -37q-46 15 -94 22q-21 -44 -21 -82q0 -42 23 -86z" />
    <glyph glyph-name="pi" unicode="&#x3c0;" horiz-adv-x="847" 
d="M809 973q-1 -213 -101 -319.5t-282 -106.5q-183 0 -285.5 107t-103.5 319q0 166 2 270q3 205 105.5 301t279.5 96q85 0 152.5 -22t120 -68t82 -124.5t30.5 -184.5q3 -116 0 -268zM745 1004v247q-3 161 -88 239.5t-233 78.5t-234.5 -78t-87.5 -238q-4 -161 0 -249
q0 -201 86 -295.5t236 -94.5q160 0 239 91.5t82 298.5zM354 1001v-247h-104v632h215q91 0 133 -45q22 -22 33.5 -66.5t11.5 -76.5q0 -101 -33 -147q-17 -23 -49 -36.5t-65 -13.5h-142zM522 1114q17 23 17 76q0 38 -19 72q-10 19 -24 25.5t-41 6.5h-101v-204h111q41 0 57 24z
" />
    <glyph glyph-name="endash" unicode="&#x2013;" horiz-adv-x="561" 
d="M535 639h-508v149h508v-149z" />
    <glyph glyph-name="emdash" unicode="&#x2014;" horiz-adv-x="948" 
d="M848 639h-748v149h748v-149z" />
    <glyph glyph-name="quoteleft" unicode="&#x2018;" horiz-adv-x="270" 
d="M227 1456v-248h-178v262l113 170l80 -36l-62 -138l2 -10h45z" />
    <glyph glyph-name="quoteright" unicode="&#x2019;" horiz-adv-x="270" 
d="M49 1386v250h176v-264l-112 -170l-78 39l59 135l-2 10h-43z" />
    <glyph glyph-name="quotesinglbase" unicode="&#x201a;" horiz-adv-x="270" 
d="M49 0v248h176v-262l-112 -172l-78 39l59 137l-2 10h-43z" />
    <glyph glyph-name="quotedblleft" unicode="&#x201c;" horiz-adv-x="509" 
d="M461 1454v-246h-172v260l112 172l76 -36l-61 -142l2 -8h43zM225 1454v-246h-170v260l113 172l76 -36l-62 -142l2 -8h41z" />
    <glyph glyph-name="quotedblright" unicode="&#x201d;" horiz-adv-x="509" 
d="M291 1391v245h172v-262l-115 -172l-74 39l60 137l-2 13h-41zM55 1391v245h172v-262l-112 -172l-76 39l61 137l-2 13h-43z" />
    <glyph glyph-name="quotedblbase" unicode="&#x201e;" horiz-adv-x="509" 
d="M291 0v246h172v-260l-115 -174l-74 38l60 140l-2 10h-41zM55 0v246h172v-260l-112 -174l-76 38l61 140l-2 10h-43z" />
    <glyph glyph-name="dagger" unicode="&#x2020;" horiz-adv-x="419" 
d="M393 958h-112v-974l-70 -174l-70 174v974h-114v125h114q-4 44 -4.5 179.5t1.5 248.5l1 113h144q6 -441 -2 -541h112v-125z" />
    <glyph glyph-name="daggerdbl" unicode="&#x2021;" horiz-adv-x="419" 
d="M281 719h102v-121h-102v-614l-70 -174l-68 174v614h-106v121h106v276h-106v121h106l-2 508h142q0 -416 -2 -508h102v-121h-102v-276z" />
    <glyph glyph-name="bullet" unicode="&#x2022;" horiz-adv-x="643" 
d="M324 520q-89 0 -153.5 67.5t-64.5 160.5t64 158t154 65t153.5 -65t63.5 -158t-64 -160.5t-153 -67.5z" />
    <glyph glyph-name="ellipsis" unicode="&#x2026;" horiz-adv-x="1112" 
d="M1018 0h-184v268h184v-268zM647 0h-184v268h184v-268zM276 0h-184v268h184v-268z" />
    <glyph glyph-name="perthousand" unicode="&#x2030;" horiz-adv-x="1509" 
d="M479 1090q0 -130 -57 -202.5t-166 -72.5q-111 0 -164 73t-53 202v288q0 126 54.5 199.5t164.5 73.5q116 0 168.5 -75.5t52.5 -197.5v-288zM821 1569l-553 -1569h-90l553 1569h90zM1479 260q0 -133 -56 -203.5t-170 -70.5q-217 0 -217 274v287q0 125 55 199.5t166 74.5
q115 0 168.5 -77t53.5 -197v-287zM985 260q0 -274 -225 -274q-217 0 -217 274v287q0 124 55.5 199t165.5 75q115 0 168 -77t53 -197v-287zM367 1090v307q0 61 -29.5 97t-79.5 36q-106 0 -106 -133v-303q0 -160 106 -160q109 0 109 156zM1364 262v303q0 62 -28.5 98.5
t-78.5 36.5q-108 0 -108 -135v-303q0 -158 108 -158q57 0 82 38t25 120zM872 262v303q0 62 -28.5 98.5t-79.5 36.5q-54 0 -81.5 -35t-27.5 -100v-303q0 -78 28 -118t81 -40q57 0 82.5 38t25.5 120z" />
    <glyph glyph-name="guilsinglleft" unicode="&#x2039;" horiz-adv-x="331" 
d="M311 274l-288 392v108l288 391v-202l-178 -244l178 -240v-205z" />
    <glyph glyph-name="guilsinglright" unicode="&#x203a;" horiz-adv-x="331" 
d="M20 274v205l179 240l-179 244v202l289 -391v-108z" />
    <glyph glyph-name="fraction" unicode="&#x2044;" horiz-adv-x="219" 
d="M385 1634q-152 -558 -238 -833q-35 -115 -90 -315t-93 -343l-38 -143h-96q162 584 246 866q35 111 88.5 303t89.5 329l37 136h94z" />
    <glyph glyph-name="Euro" unicode="&#x20ac;" horiz-adv-x="706" 
d="M662 467q0 -8 -3.5 -88t-5.5 -109q-15 -140 -81 -211t-191 -71q-122 0 -186 67t-82 193q-8 74 -13 418h-82v104h76v41v41h-76v104h80q5 378 17 451q21 116 83.5 175.5t182.5 59.5t185 -66.5t83 -197.5q10 -64 10 -243h-139q4 122 -2 196q-5 88 -39 136.5t-98 48.5
q-119 0 -133 -156q-8 -75 -8 -404h254v-104h-254v-39v-43h254v-104h-254q0 -302 6 -385q16 -168 135 -168q131 0 137 184q2 59 2 170h142z" />
    <glyph glyph-name="trademark" unicode="&#x2122;" horiz-adv-x="1013" 
d="M872 1063v395q0 74 -59 74q-33 0 -52.5 -32t-19.5 -68v-369h-108v399q0 70 -58 70q-34 0 -54.5 -34t-20.5 -83v-352h-111v573h109v-88q9 46 42.5 72.5t80.5 26.5q86 0 108 -97q11 49 46.5 73t80.5 24q67 0 96 -42.5t29 -107.5v-434h-109zM344 1528h-127v-291
q3 -72 62 -72q43 0 51 2v-102q-23 -4 -94 -4q-57 0 -92 34t-35 103v330h-103v108h338v-108z" />
    <glyph glyph-name="partialdiff" unicode="&#x2202;" horiz-adv-x="710" 
d="M322 1051v448h-312v129h690v-129h-317v-448q84 -14 141.5 -78.5t57.5 -149.5q0 -86 -58 -150t-143 -75v-446h319v-142h-690v142h309v446q-84 12 -140 75.5t-56 149.5q0 85 57.5 149.5t141.5 78.5zM199 737q19 5 88 25q-51 -64 -54 -68q40 -35 86 -43v97l31 67l31 -67v-97
q51 9 88 43q-7 10 -27 34t-28 36q85 -23 92 -25q22 39 22 84q0 47 -24 88q-38 -9 -92 -24q1 2 55 69q-37 32 -84 41v-96l-33 -70l-28 70v96q-42 -8 -86 -43q7 -10 26.5 -34t28.5 -37q-46 15 -94 22q-21 -44 -21 -82q0 -42 23 -86z" />
    <glyph glyph-name="product" unicode="&#x220f;" horiz-adv-x="710" 
d="M322 1051v448h-312v129h690v-129h-317v-448q84 -14 141.5 -78.5t57.5 -149.5q0 -86 -58 -150t-143 -75v-446h319v-142h-690v142h309v446q-84 12 -140 75.5t-56 149.5q0 85 57.5 149.5t141.5 78.5zM199 737q19 5 88 25q-51 -64 -54 -68q40 -35 86 -43v97l31 67l31 -67v-97
q51 9 88 43q-7 10 -27 34t-28 36q85 -23 92 -25q22 39 22 84q0 47 -24 88q-38 -9 -92 -24q1 2 55 69q-37 32 -84 41v-96l-33 -70l-28 70v96q-42 -8 -86 -43q7 -10 26.5 -34t28.5 -37q-46 15 -94 22q-21 -44 -21 -82q0 -42 23 -86z" />
    <glyph glyph-name="summation" unicode="&#x2211;" horiz-adv-x="710" 
d="M322 1051v448h-312v129h690v-129h-317v-448q84 -14 141.5 -78.5t57.5 -149.5q0 -86 -58 -150t-143 -75v-446h319v-142h-690v142h309v446q-84 12 -140 75.5t-56 149.5q0 85 57.5 149.5t141.5 78.5zM199 737q19 5 88 25q-51 -64 -54 -68q40 -35 86 -43v97l31 67l31 -67v-97
q51 9 88 43q-7 10 -27 34t-28 36q85 -23 92 -25q22 39 22 84q0 47 -24 88q-38 -9 -92 -24q1 2 55 69q-37 32 -84 41v-96l-33 -70l-28 70v96q-42 -8 -86 -43q7 -10 26.5 -34t28.5 -37q-46 15 -94 22q-21 -44 -21 -82q0 -42 23 -86z" />
    <glyph glyph-name="minus" unicode="&#x2212;" horiz-adv-x="610" 
d="M584 739h-559v135h559v-135z" />
    <glyph glyph-name="radical" unicode="&#x221a;" horiz-adv-x="815" 
d="M791 1636l-351 -1654h-209l-202 677h137l162 -542l313 1519h150z" />
    <glyph glyph-name="infinity" unicode="&#x221e;" horiz-adv-x="763" 
d="M692 762q0 -97 -41.5 -145t-130.5 -48q-102 0 -143 68q-38 -68 -137 -68q-95 0 -132.5 50t-37.5 145t39.5 144.5t128.5 49.5q100 0 139 -63q43 63 143 63q93 0 132.5 -50.5t39.5 -145.5zM600 764q0 62 -18 90.5t-64 28.5q-27 0 -46 -9t-30 -28.5t-17 -38t-11 -47.5
q9 -57 29.5 -86t70.5 -29q46 0 66 26t20 93zM244 645q20 0 34.5 6.5t23.5 16.5t15.5 26.5t10.5 32.5t8 38q0 2 0.5 3.5t1 3.5t0.5 4q-11 52 -31 79.5t-63 27.5q-45 0 -63.5 -27.5t-18.5 -93.5q0 -67 17.5 -92t64.5 -25z" />
    <glyph glyph-name="integral" unicode="&#x222b;" horiz-adv-x="710" 
d="M322 1051v448h-312v129h690v-129h-317v-448q84 -14 141.5 -78.5t57.5 -149.5q0 -86 -58 -150t-143 -75v-446h319v-142h-690v142h309v446q-84 12 -140 75.5t-56 149.5q0 85 57.5 149.5t141.5 78.5zM199 737q19 5 88 25q-51 -64 -54 -68q40 -35 86 -43v97l31 67l31 -67v-97
q51 9 88 43q-7 10 -27 34t-28 36q85 -23 92 -25q22 39 22 84q0 47 -24 88q-38 -9 -92 -24q1 2 55 69q-37 32 -84 41v-96l-33 -70l-28 70v96q-42 -8 -86 -43q7 -10 26.5 -34t28.5 -37q-46 15 -94 22q-21 -44 -21 -82q0 -42 23 -86z" />
    <glyph glyph-name="approxequal" unicode="&#x2248;" horiz-adv-x="622" 
d="M598 1024q-4 -89 -48.5 -138.5t-113.5 -49.5q-74 0 -135 49q-2 2 -9.5 8.5t-10 8.5t-8.5 7.5t-9 7t-9 5.5t-9.5 5t-9.5 3.5t-11 3.5t-12 1.5t-14 0.5q-33 0 -54 -22t-22 -62l-98 6q1 81 45.5 131.5t113.5 50.5q85 0 150 -61q24 -23 41 -32t45 -9q72 0 78 92zM598 780
q-4 -89 -48.5 -138.5t-113.5 -49.5q-79 0 -135 49q-4 3 -16 13.5t-15.5 13t-13.5 9.5t-17 9t-17.5 4t-22.5 2q-33 0 -54 -22t-22 -62l-98 4q1 83 45.5 134t113.5 51q36 0 66.5 -9.5t45 -19t36.5 -27.5q4 -3 15 -12.5t14.5 -12t12.5 -8.5t14.5 -8t14 -4t17.5 -2q72 0 78 90z
" />
    <glyph glyph-name="notequal" unicode="&#x2260;" horiz-adv-x="606" 
d="M319 1001l39 119h86l-38 -119h169v-110h-204l-47 -143h251v-111h-286l-37 -113h-86l37 113h-172v111h207l47 143h-254v110h288z" />
    <glyph glyph-name="lessequal" unicode="&#x2264;" horiz-adv-x="602" 
d="M571 657l-544 181v104l544 191v-107l-413 -137l413 -125v-107zM573 518h-546v103h546v-103z" />
    <glyph glyph-name="greaterequal" unicode="&#x2265;" horiz-adv-x="602" 
d="M573 838l-542 -181v107l413 125l-413 137v107l542 -191v-104zM573 518h-546v103h546v-103z" />
    <glyph glyph-name="lozenge" unicode="&#x25ca;" horiz-adv-x="690" 
d="M651 655l-221 -655h-170l-221 655l221 656h170zM520 655l-176 553l-174 -553l174 -553z" />
    <glyph glyph-name="f_f" unicode="&#xfb00;" horiz-adv-x="733" 
d="M246 999v-999h-140v999h-96v127h96v304q0 101 44.5 158t140.5 57q44 0 100 -9v-127q-7 0 -34 2t-38 2q-75 0 -75 -86v-301h215v299q0 100 44.5 160t137.5 60q44 0 100 -9v-127q-8 0 -33 2t-38 2q-37 0 -55.5 -22t-18.5 -59v-306h133v-127h-133v-999h-137v999h-213z" />
    <glyph glyph-name="f_f_i" unicode="&#xfb03;" horiz-adv-x="1028" 
d="M821 1001h-225v-1001h-137v1001h-213v-1001h-140v999h-96v127h96v304q0 101 44.5 158t140.5 57q44 0 100 -9v-127q-7 0 -34 2t-38 2q-75 0 -75 -86v-301h215v299q0 100 44.5 160t137.5 60q44 0 100 -9v-127q-8 0 -33 2t-38 2q-37 0 -55.5 -22t-18.5 -59v-306h365v-1032
q0 -20 2.5 -42.5t5.5 -36.5t4 -15h-139q-5 0 -9 26.5t-4 55.5v919z" />
    <glyph glyph-name="f_f_l" unicode="&#xfb04;" horiz-adv-x="1024" 
d="M246 999v-999h-140v999h-96v127h96v304q0 101 44.5 158t140.5 57q44 0 100 -9v-127q-7 0 -34 2t-38 2q-75 0 -75 -86v-301h215v299q0 100 44.5 160t137.5 60q48 0 100 -9v-127q-32 4 -71 4q-37 0 -55.5 -22t-18.5 -59v-306h162v-127h-162v-999h-137v999h-213zM971 0h-137
q-11 16 -11 66v1474q0 76 -4 96h142l1 -10q0 -11 0.5 -27t0.5 -30v-1481q0 -77 8 -88z" />
    <glyph glyph-name="NUL" horiz-adv-x="0" 
 />
    <glyph glyph-name="apple" horiz-adv-x="710" 
d="M322 1051v448h-312v129h690v-129h-317v-448q84 -14 141.5 -78.5t57.5 -149.5q0 -86 -58 -150t-143 -75v-446h319v-142h-690v142h309v446q-84 12 -140 75.5t-56 149.5q0 85 57.5 149.5t141.5 78.5zM199 737q19 5 88 25q-51 -64 -54 -68q40 -35 86 -43v97l31 67l31 -67v-97
q51 9 88 43q-7 10 -27 34t-28 36q85 -23 92 -25q22 39 22 84q0 47 -24 88q-38 -9 -92 -24q1 2 55 69q-37 32 -84 41v-96l-33 -70l-28 70v96q-42 -8 -86 -43q7 -10 26.5 -34t28.5 -37q-46 15 -94 22q-21 -44 -21 -82q0 -42 23 -86z" />
    </font>
</defs>
</svg>
